<svg width="11" height="11" viewBox="0 0 11 11" fill="none" xmlns="http://www.w3.org/2000/svg">
<path fill-rule="evenodd" clip-rule="evenodd" d="M10.6782 0.321832C10.2491 -0.10723 9.55344 -0.107172 9.12431 0.32196L5.5001 3.94617L1.94525 0.391312C1.51619 -0.0377493 0.820482 -0.0376916 0.39135 0.39144C-0.0377818 0.820573 -0.0378397 1.51628 0.391221 1.94534L3.94608 5.50019L0.321867 9.1244C-0.107265 9.55353 -0.107323 10.2492 0.321738 10.6783C0.7508 11.1074 1.4465 11.1073 1.87564 10.6782L5.49984 7.05396L9.05469 10.6088C9.48375 11.0379 10.1795 11.0378 10.6086 10.6087C11.0377 10.1795 11.0378 9.48384 10.6087 9.05478L7.05387 5.49993L10.6781 1.87573C11.1072 1.4466 11.1073 0.750893 10.6782 0.321832Z" fill="white"/>
</svg>
