<svg width="20" height="13" viewBox="0 0 20 13" fill="none" xmlns="http://www.w3.org/2000/svg">
<path d="M20 6.70312V6.29688C20 6.07242 19.7763 5.89062 19.5 5.89062H10.75V4.875H13C13.5522 4.875 14 4.51115 14 4.0625V0.8125C14 0.363848 13.5522 0 13 0H7C6.44781 0 6 0.363848 6 0.8125V4.0625C6 4.51115 6.44781 4.875 7 4.875H9.25V5.89062H0.5C0.22375 5.89062 0 6.07242 0 6.29688V6.70312C0 6.92758 0.22375 7.10938 0.5 7.10938H3.75V8.125H2C1.44781 8.125 1 8.48885 1 8.9375V12.1875C1 12.6362 1.44781 13 2 13H7C7.55219 13 8 12.6362 8 12.1875V8.9375C8 8.48885 7.55219 8.125 7 8.125H5.25V7.10938H14.75V8.125H13C12.4478 8.125 12 8.48885 12 8.9375V12.1875C12 12.6362 12.4478 13 13 13H18C18.5522 13 19 12.6362 19 12.1875V8.9375C19 8.48885 18.5522 8.125 18 8.125H16.25V7.10938H19.5C19.7763 7.10938 20 6.92758 20 6.70312ZM8 3.25V1.625H12V3.25H8ZM6 11.375H3V9.75H6V11.375ZM17 11.375H14V9.75H17V11.375Z" fill="white"/>
</svg>
