<svg width="19" height="12" viewBox="0 0 19 12" fill="none" xmlns="http://www.w3.org/2000/svg">
<path d="M9.49991 9.37497C7.24812 9.37497 5.42531 7.99896 5.25758 6.25523L2.14337 4.35517C1.73398 4.76064 1.35724 5.18931 1.05325 5.65805C0.985333 5.76411 0.949949 5.88128 0.949949 6.00012C0.949949 6.11895 0.985333 6.23613 1.05325 6.34218C2.66319 8.82208 5.85043 10.5 9.49991 10.5C10.2988 10.5 11.0695 10.4062 11.8123 10.2548L10.2718 9.31379C10.0174 9.35259 9.75901 9.37307 9.49991 9.37497ZM18.8164 10.7367L15.5345 8.73419C16.5314 8.07089 17.3514 7.25771 17.9466 6.34195C18.0145 6.23589 18.0499 6.11872 18.0499 5.99988C18.0499 5.88105 18.0145 5.76387 17.9466 5.65782C16.3366 3.17792 13.1494 1.50005 9.49991 1.50005C7.97145 1.50151 6.46782 1.80529 5.12636 2.38363L1.34953 0.0790451C1.30027 0.0487894 1.24396 0.0264918 1.18378 0.0134266C1.12361 0.000361469 1.06077 -0.00321525 0.99885 0.00290088C0.936928 0.00901701 0.87714 0.0247061 0.822901 0.0490716C0.768662 0.0734371 0.721037 0.106001 0.682746 0.144904L0.0999824 0.737163C0.0226759 0.815674 -0.0119646 0.915212 0.00367949 1.01388C0.0193236 1.11256 0.0839712 1.20228 0.183404 1.26333L17.6503 11.921C17.6995 11.9512 17.7559 11.9735 17.816 11.9866C17.8762 11.9996 17.939 12.0032 18.001 11.9971C18.0629 11.991 18.1227 11.9753 18.1769 11.9509C18.2312 11.9266 18.2788 11.894 18.3171 11.8551L18.9001 11.2628C18.9774 11.1843 19.012 11.0847 18.9963 10.9861C18.9806 10.8874 18.9159 10.7977 18.8164 10.7367ZM13.3622 7.40858L12.1955 6.69656C12.2938 6.47237 12.3459 6.2372 12.3499 6C12.3557 5.65272 12.2582 5.30921 12.0654 4.99706C11.8725 4.68491 11.5896 4.41282 11.2393 4.20265C10.8891 3.99248 10.4813 3.85008 10.0487 3.7869C9.61614 3.72372 9.17082 3.74151 8.74852 3.83885C8.92754 4.03036 9.02437 4.26201 9.02491 4.50002C9.02048 4.57922 9.00515 4.6578 8.97919 4.73439L6.7939 3.40104C7.553 2.90024 8.51064 2.62561 9.49991 2.62503C10.0614 2.62479 10.6174 2.71192 11.1362 2.88144C11.655 3.05096 12.1264 3.29955 12.5235 3.61299C12.9205 3.92643 13.2354 4.29858 13.4501 4.70817C13.6648 5.11775 13.7752 5.55672 13.7749 6C13.7749 6.50695 13.6178 6.97944 13.3622 7.40881V7.40858Z" fill="white" fill-opacity="0.5"/>
</svg>
