<svg width="20" height="13" viewBox="0 0 20 13" fill="none" xmlns="http://www.w3.org/2000/svg">
<path d="M19.375 10.8333H2.5V0.541667C2.5 0.242396 2.22031 0 1.875 0H0.625C0.279687 0 0 0.242396 0 0.541667V11.9167C0 12.5149 0.559766 13 1.25 13H19.375C19.7203 13 20 12.7576 20 12.4583V11.375C20 11.0757 19.7203 10.8333 19.375 10.8333ZM18.125 1.08333H13.5133C12.6781 1.08333 12.2598 1.95846 12.8504 2.47034L14.116 3.56721L11.25 6.05143L8.38398 3.56755C7.8957 3.14438 7.1043 3.14438 6.61641 3.56755L3.9332 5.893C3.68906 6.10458 3.68906 6.44753 3.9332 6.65912L4.8168 7.4249C5.06094 7.63649 5.45664 7.63649 5.70078 7.4249L7.5 5.86523L10.366 8.34911C10.8543 8.77229 11.6457 8.77229 12.1336 8.34911L15.8836 5.09911L17.1492 6.19599C17.7398 6.70786 18.7496 6.34529 18.7496 5.62148V1.625C18.75 1.32573 18.4703 1.08333 18.125 1.08333Z" fill="white"/>
</svg>
