<svg width="14" height="16" viewBox="0 0 14 16" fill="none" xmlns="http://www.w3.org/2000/svg">
<path d="M7.00311 7.68625C6.6408 7.68625 6.34685 8.02187 6.34685 8.43625C6.37802 10.6941 6.12427 12.8706 5.58942 15.0472C5.51477 15.3509 5.64821 16 6.22161 16C6.50818 16 6.7715 15.7838 6.85299 15.4525C7.22295 13.9553 7.70175 11.5334 7.65909 8.43625C7.65936 8.02219 7.36569 7.68625 7.00311 7.68625ZM6.97959 5.13219C5.30449 5.13 4.13553 6.60312 4.15878 8.29125C4.17928 9.78937 4.05624 11.2884 3.79319 12.7459C3.71963 13.1516 3.94823 13.5487 4.30288 13.6322C4.65972 13.7156 5.0048 13.4553 5.07836 13.0497C5.36109 11.4844 5.49317 9.87531 5.47129 8.26781C5.46008 7.45687 6.01599 6.6275 6.96018 6.63219C7.81632 6.64687 8.52289 7.42406 8.53574 8.36562C8.5568 9.86719 8.4589 11.3759 8.24562 12.8516C8.18628 13.2597 8.42855 13.6459 8.78594 13.7134C9.332 13.8175 9.51903 13.2416 9.54009 13.0956C9.7665 11.5322 9.86986 9.93281 9.84826 8.34219C9.82419 6.59844 8.53738 5.15844 6.97959 5.13219ZM3.95288 4.51406C3.67123 4.25344 3.25916 4.30156 3.02974 4.62281C2.32918 5.60719 1.95266 6.85031 1.97016 8.12281C1.98629 9.29719 1.90262 10.475 1.72105 11.6244C1.65707 12.0322 1.89359 12.4222 2.25043 12.4959C2.80032 12.6053 2.99064 12.0331 3.01306 11.8909C3.20966 10.6459 3.30017 9.37031 3.28267 8.09937C3.26982 7.16562 3.53424 6.29062 4.04831 5.56906C4.27663 5.24781 4.23397 4.77562 3.95288 4.51406ZM6.94623 2.56625C6.52486 2.55344 6.10212 2.61125 5.69442 2.72156C5.34195 2.81719 5.12375 3.22094 5.20687 3.62437C5.29055 4.02719 5.64438 4.27531 5.99684 4.18156C6.299 4.1 6.61127 4.06375 6.92654 4.06625C8.98911 4.10156 10.6926 5.98812 10.7241 8.27187C10.7402 9.45562 10.6891 10.6503 10.5715 11.8228C10.5305 12.2344 10.7889 12.6066 11.1487 12.6534C11.6059 12.7144 11.8463 12.2822 11.8755 11.9937C11.9998 10.7506 12.0536 9.49954 12.0366 8.24844C11.9939 5.1625 9.71044 2.61312 6.94623 2.56625ZM13.8389 6.36156C13.7606 5.95781 13.4147 5.69906 13.0565 5.79062C12.7027 5.88 12.479 6.28 12.5572 6.68469C12.686 7.35375 12.6915 7.85375 12.6858 8.60969C12.6827 9.02437 12.9742 9.3625 13.3365 9.36594H13.342C13.7021 9.36594 13.9953 9.03437 13.9983 8.62219C14.0032 7.92906 14.0092 7.24375 13.8389 6.36156ZM12.7418 3.52656C11.4101 1.35812 9.2311 0.0403104 6.9126 0.00062294C5.00425 -0.0256271 3.23919 0.778436 1.92641 2.27937C0.658462 3.73031 -0.0248667 5.6575 0.00357114 7.70781L0.000289848 8.37875C-0.0103743 8.79281 0.274551 9.13844 0.63686 9.15031C0.643149 9.15094 0.649985 9.15094 0.656548 9.15094C1.00983 9.15094 1.30159 8.82906 1.31199 8.42281L1.31636 7.68406C1.29366 6.04344 1.84027 4.50094 2.85528 3.34031C3.91514 2.12781 5.35289 1.47562 6.89346 1.50094C8.7925 1.53312 10.5775 2.61219 11.6683 4.38812C11.8764 4.7275 12.2852 4.80844 12.5821 4.57125C12.8785 4.33312 12.9502 3.86531 12.7418 3.52656Z" fill="white"/>
</svg>
