<svg width="23" height="17" viewBox="0 0 23 17" fill="none" xmlns="http://www.w3.org/2000/svg">
<path fill-rule="evenodd" clip-rule="evenodd" d="M3.49683 4.1196C3.48215 4.13325 3.45333 4.16156 3.42153 4.19339C3.39849 4.21646 3.38007 4.23511 3.34195 4.27386L1.23256 6.41775C1.17732 6.47655 1.13895 6.51603 1.04981 6.60664C1.00006 6.65719 0.963543 6.69602 0.884961 6.78088C0.738847 6.9246 0.584777 7.09616 0.440398 7.27727C0.304264 7.42364 0.195493 7.59412 0.119528 7.78036C-0.0368719 8.26465 -0.0368719 8.73535 0.102444 9.17253L0.121105 9.22347C0.197685 9.40777 0.305807 9.57672 0.440373 9.72251C0.584879 9.9023 0.738935 10.0739 0.901856 10.2367C0.963543 10.304 1.00006 10.3428 1.04981 10.3934L1.23256 10.5791L3.15575 12.5369C3.24569 12.6283 3.28985 12.6727 3.34101 12.7223C3.39554 12.7807 3.45281 12.8387 3.5103 12.8937C3.52058 12.903 5.97173 15.3926 5.97173 15.3926C6.04743 15.4696 6.1085 15.53 6.24586 15.6648C6.26044 15.6793 6.28258 15.7022 6.28937 15.7094C6.32473 15.7472 6.34524 15.7691 6.35891 15.783C6.64476 16.0739 6.97339 16.3184 7.33291 16.5076C7.70128 16.694 8.08459 16.8222 8.47998 16.8929C8.85349 16.955 9.22348 16.9882 9.59437 16.9936C9.65819 16.9949 9.71119 16.9956 9.82941 16.9968C9.94351 16.998 9.99375 16.9986 10.0555 16.9999L17.3594 17C17.4347 16.9986 17.4856 16.998 17.601 16.9968C17.7203 16.9956 17.7739 16.9949 17.8424 16.9936C18.2148 16.9869 18.5874 16.9526 18.9561 16.8909C19.3602 16.8214 19.749 16.691 20.1119 16.5035C20.4775 16.3148 20.8113 16.0679 21.1006 15.7724C21.3883 15.4788 21.6299 15.1413 21.8164 14.7724C22.0005 14.3978 22.1271 14.0045 22.1951 13.5988C22.2569 13.2196 22.2897 12.839 22.2937 12.4576C22.297 12.3791 22.2984 12.3041 22.3006 12.138C22.3016 12.0591 22.3021 12.0244 22.3029 11.9816L22.303 4.98981C22.3021 4.93534 22.3016 4.90074 22.3006 4.82327L22.2995 4.74278C22.298 4.64128 22.2962 4.56512 22.2932 4.48928C22.2892 4.13025 22.2576 3.75455 22.1993 3.38269C22.1281 2.9709 22.0019 2.58132 21.8231 2.21602C21.6351 1.84294 21.3952 1.50805 21.1086 1.21693C20.823 0.924423 20.4914 0.678569 20.1278 0.490418C19.7667 0.306533 19.3851 0.178107 18.9914 0.107241C18.6138 0.0461235 18.2432 0.0140679 17.8718 0.00949072C17.749 0.00425352 17.6403 0.00314815 17.3997 0.00314815C17.3208 0.00172515 17.2287 0.000841628 17.1251 0.000399076C17.0471 6.60177e-05 16.9851 0 16.8452 0H10.6224C10.3433 0 10.2169 0.000537435 10.0576 0.00323558C9.82736 0.00314815 9.7186 0.00425352 9.57854 0.00994754C9.22543 0.0137774 8.85544 0.0458787 8.48927 0.105528C8.08459 0.177816 7.70128 0.306015 7.34185 0.487769C6.97339 0.681617 6.64476 0.926129 6.35865 1.21728C6.34524 1.2309 6.32473 1.25276 6.29077 1.2891C6.28258 1.29781 6.24586 1.33519 6.24586 1.33519C6.1085 1.46999 6.04743 1.53044 5.97173 1.60738L5.65578 1.92849L3.55446 4.06727C3.53605 4.0822 3.51635 4.09976 3.49683 4.1196ZM16.8452 1.25926C16.9834 1.25926 17.0442 1.25932 17.1199 1.25965C17.2187 1.26007 17.3058 1.2609 17.3894 1.26232C17.6238 1.26241 17.7215 1.2634 17.8396 1.2682C18.1681 1.27249 18.4787 1.29936 18.7861 1.34904C19.0513 1.39687 19.3187 1.48689 19.5693 1.61444C19.8117 1.73995 20.0363 1.90644 20.2309 2.10572C20.4278 2.3058 20.5913 2.53389 20.7171 2.78352C20.8397 3.03402 20.9284 3.30816 20.9774 3.59095C21.0246 3.89234 21.051 4.20687 21.0548 4.5221C21.0577 4.60292 21.0593 4.66963 21.0606 4.76148L21.0617 4.83991C21.0627 4.92022 21.0633 4.95673 21.0642 5.0024L21.064 11.9693C21.0633 12.0033 21.0627 12.0399 21.0617 12.1216C21.0597 12.2767 21.0584 12.3444 21.0552 12.4263C21.0515 12.7612 21.0242 13.0774 20.9732 13.39C20.9261 13.6708 20.8377 13.9458 20.7111 14.2033C20.5862 14.4503 20.4203 14.6821 20.2224 14.884C20.0257 15.085 19.799 15.2526 19.5507 15.3809C19.2993 15.5107 19.0301 15.601 18.7522 15.6488C18.4455 15.7001 18.1328 15.7289 17.8193 15.7345C17.7549 15.7358 17.704 15.7365 17.5887 15.7376C17.4694 15.7388 17.4158 15.7395 17.3473 15.7409L10.0679 15.7407C10.013 15.7395 9.96002 15.7388 9.8418 15.7376C9.72771 15.7365 9.67746 15.7358 9.61568 15.7346C9.3023 15.73 8.99312 15.7022 8.68721 15.6514C8.41642 15.6029 8.14669 15.5127 7.89375 15.3848C7.65641 15.2598 7.43129 15.0923 7.23528 14.8928L7.18691 14.8413C7.13883 14.7902 7.11802 14.7684 7.09409 14.7468C6.97067 14.6256 6.91449 14.5699 6.84783 14.5022L4.39152 12.0057L4.39139 12.0056C4.36903 11.9849 4.3555 11.9724 4.34614 11.964C4.30176 11.9206 4.26545 11.8833 4.23112 11.8463C4.16021 11.7764 4.12135 11.7374 4.03221 11.6468L2.10901 9.68903L1.92591 9.50293C1.88789 9.46429 1.8573 9.43176 1.7872 9.35607C1.63464 9.20301 1.50663 9.05981 1.38689 8.90959L1.34942 8.86673C1.31819 8.83412 1.29227 8.79675 1.27257 8.756C1.22491 8.58813 1.22508 8.40991 1.27311 8.24212C1.29168 8.20301 1.31648 8.16723 1.34656 8.13624L1.38879 8.08802C1.50656 7.93879 1.63325 7.79705 1.76815 7.66363C1.8573 7.56824 1.88789 7.53571 1.92591 7.49707C2.02261 7.39878 2.06581 7.35432 2.11975 7.29662L4.03221 5.35318L4.21806 5.16429C4.25505 5.12669 4.27092 5.11062 4.29103 5.09049L4.33196 5.0531C4.36173 5.02597 4.37824 5.01093 4.39461 4.99429L6.5322 2.8186L6.84783 2.49781C6.91449 2.43006 6.97067 2.37439 7.09409 2.25325C7.11802 2.23164 7.13883 2.20984 7.18531 2.16039L7.23502 2.10744C7.43129 1.90772 7.65641 1.74022 7.90269 1.61058C8.14669 1.48729 8.41642 1.39708 8.69466 1.34733C8.99133 1.29907 9.3005 1.27225 9.61035 1.26866C9.74612 1.2634 9.84386 1.26241 10.0679 1.26241C10.2284 1.25978 10.3501 1.25926 10.6224 1.25926H16.8452ZM10.9772 11.8325C10.9271 11.8825 10.8672 11.9232 10.7997 11.9515C10.5911 12.0391 10.3511 11.9902 10.1918 11.8276C9.97523 11.6065 9.97523 11.2491 10.1918 11.028C10.2234 10.9957 10.2582 10.9679 10.2953 10.9448L12.7008 8.49731L10.1918 5.95L10.1994 5.94229C10.1502 5.89133 10.1101 5.83048 10.0823 5.76192C9.9961 5.54987 10.0442 5.30594 10.2042 5.14407C10.4217 4.92395 10.7734 4.92395 10.991 5.14407C11.0226 5.17612 11.0499 5.21138 11.0727 5.24897L13.4863 7.69815L15.9224 5.21954C15.9405 5.19306 15.9611 5.16779 15.9841 5.14407C16.1428 4.98211 16.3819 4.93336 16.5897 5.02058C16.7975 5.1078 16.9331 5.31378 16.9331 5.54231C16.9331 5.69464 16.8729 5.83694 16.7712 5.94074L16.7772 5.94685L14.2721 8.49556L16.7169 10.9763C16.739 10.9927 16.7601 11.011 16.7802 11.0311C16.9396 11.1923 16.9875 11.4353 16.9017 11.6466C16.8159 11.8578 16.6132 11.9956 16.3884 11.9956C16.2385 11.9956 16.0984 11.9344 15.9963 11.831L15.9903 11.837L13.4865 9.29494L10.9848 11.8402L10.9772 11.8325Z" fill="white"/>
</svg>
