<svg width="24" height="5" viewBox="0 0 24 5" fill="none" xmlns="http://www.w3.org/2000/svg">
<path fill-rule="evenodd" clip-rule="evenodd" d="M20.506 0C19.1227 0 18.0035 1.11922 18.0035 2.50049C18.0035 3.85775 19.0867 4.96397 20.439 4.99998H20.573C21.9233 4.96397 23.0065 3.85775 23.0065 2.50049C23.0065 1.11922 21.8863 0 20.506 0ZM11.5032 0C10.121 0 9.00276 1.11922 9.00276 2.50049C9.00276 3.85775 10.085 4.96397 11.4362 4.99998H11.5703C12.9215 4.96397 14.0037 3.85775 14.0037 2.50049C14.0037 1.11922 12.8855 0 11.5032 0ZM2.50049 0C1.11922 0 0 1.11922 0 2.50049C0 3.85775 1.08321 4.96397 2.43348 4.99998H2.5675C3.91977 4.96397 5.00398 3.85775 5.00398 2.50049C5.00398 1.11922 3.88276 0 2.50049 0Z" fill="#8E8E93"/>
</svg>
