<svg width="21" height="15" viewBox="0 0 21 15" fill="none" xmlns="http://www.w3.org/2000/svg">
<path d="M20.3815 0.752009C19.1087 0.207254 17.835 4.02709e-08 16.5619 4.02709e-08C12.5204 -0.000334781 8.47927 2.08728 4.43782 2.08728C3.42426 2.08728 2.41135 1.95603 1.39779 1.6279C1.28393 1.59107 1.16975 1.57366 1.05819 1.57366C0.493492 1.57366 0 2.01964 0 2.63873V13.2613C0 13.6842 0.237231 14.0849 0.618178 14.2477C1.89095 14.7927 3.16472 15 4.43782 15C8.47927 15 12.5207 12.9124 16.5622 12.9124C17.5757 12.9124 18.5886 13.0436 19.6022 13.3718C19.7161 13.4086 19.8303 13.426 19.9418 13.426C20.5065 13.426 21 12.98 21 12.3609V1.73873C20.9997 1.31551 20.7624 0.915067 20.3815 0.752009ZM1.57498 3.35558C2.23515 3.52433 2.9242 3.60904 3.63294 3.65458C3.44001 4.63862 2.59215 5.38025 1.57498 5.38025V3.35558ZM1.57498 12.898V11.2982C2.70272 11.2982 3.61522 12.2113 3.66543 13.354C2.92617 13.2934 2.23515 13.1427 1.57498 12.898ZM10.4998 10.7143C9.04987 10.7143 7.87488 9.27489 7.87488 7.5C7.87488 5.72478 9.0502 4.28571 10.4998 4.28571C11.9495 4.28571 13.1248 5.72478 13.1248 7.5C13.1248 9.27556 11.9491 10.7143 10.4998 10.7143ZM19.4247 11.6444C18.8498 11.4974 18.253 11.4151 17.6423 11.3618C17.835 10.4886 18.5447 9.82567 19.4247 9.71183V11.6444ZM19.4247 3.73895C18.4111 3.60804 17.6246 2.74453 17.5935 1.67813C18.2346 1.75078 18.8433 1.88672 19.4247 2.10201V3.73895Z" fill="white"/>
</svg>
