<svg width="11" height="14" viewBox="0 0 11 14" fill="none" xmlns="http://www.w3.org/2000/svg">
<path d="M9.62498 4.51171H8.93748V3.22265C8.93748 1.44375 7.39749 0 5.49999 0C3.60249 0 2.0625 1.44375 2.0625 3.22265V4.51171H1.375C0.618749 4.51171 0 5.09179 0 5.80077V12.2461C0 12.9551 0.618749 13.5351 1.375 13.5351H9.62498C10.3812 13.5351 11 12.9551 11 12.2461V5.80077C11 5.09179 10.3812 4.51171 9.62498 4.51171ZM5.49999 10.3125C4.74374 10.3125 4.12499 9.7324 4.12499 9.02342C4.12499 8.31444 4.74374 7.73436 5.49999 7.73436C6.25624 7.73436 6.87499 8.31444 6.87499 9.02342C6.87499 9.7324 6.25624 10.3125 5.49999 10.3125ZM7.63124 4.51171H3.36874V3.22265C3.36874 2.1205 4.32437 1.22461 5.49999 1.22461C6.67561 1.22461 7.63124 2.1205 7.63124 3.22265V4.51171Z" fill="white"/>
</svg>
