<svg width="20" height="15" viewBox="0 0 20 15" fill="none" xmlns="http://www.w3.org/2000/svg">
<path d="M0 13.3929C0 14.2801 0.746528 15 1.66667 15H18.3333C19.2535 15 20 14.2801 20 13.3929V7.5H0V13.3929ZM6.66667 11.1161C6.66667 10.8951 6.85417 10.7143 7.08333 10.7143H11.8056C12.0347 10.7143 12.2222 10.8951 12.2222 11.1161V12.4554C12.2222 12.6763 12.0347 12.8571 11.8056 12.8571H7.08333C6.85417 12.8571 6.66667 12.6763 6.66667 12.4554V11.1161ZM2.22222 11.1161C2.22222 10.8951 2.40972 10.7143 2.63889 10.7143H5.13889C5.36806 10.7143 5.55556 10.8951 5.55556 11.1161V12.4554C5.55556 12.6763 5.36806 12.8571 5.13889 12.8571H2.63889C2.40972 12.8571 2.22222 12.6763 2.22222 12.4554V11.1161ZM20 1.60714V3.21429H0V1.60714C0 0.719866 0.746528 0 1.66667 0H18.3333C19.2535 0 20 0.719866 20 1.60714Z" fill="white"/>
</svg>
