<svg width="11" height="10" viewBox="0 0 11 10" fill="none" xmlns="http://www.w3.org/2000/svg">
<path d="M10.4366 3.3498L7.4328 2.93359L6.09045 0.347852C5.96978 0.116797 5.73439 0 5.499 0C5.26505 0 5.0313 0.115234 4.91022 0.347852L3.56746 2.9334L0.563424 3.34922C0.024718 3.42344 -0.191175 4.0541 0.199361 4.41543L2.37245 6.42715L1.85817 9.26855C1.78511 9.67441 2.12557 10 2.50687 10C2.60805 10 2.71209 9.97715 2.81204 9.92676L5.49941 8.58535L8.18658 9.92715C8.28632 9.97695 8.39016 9.99961 8.49093 9.99961C8.87264 9.99961 9.21372 9.67519 9.14066 9.26914L8.62699 6.42754L10.8005 4.41621C11.1912 4.05488 10.9753 3.42402 10.4366 3.3498ZM7.93826 5.75605L7.5664 6.10019L7.65424 6.58613L8.05483 8.80195L5.9589 7.75527L5.49962 7.52598L5.50023 1.33086L6.54748 3.34824L6.77692 3.79023L7.29018 3.86133L9.63442 4.18613L7.93826 5.75605Z" fill="#FFE234"/>
</svg>
