<svg width="211" height="153" viewBox="0 0 211 153" fill="none" xmlns="http://www.w3.org/2000/svg">
<path d="M0 15C0 6.71573 6.71573 0 15 0H196C204.284 0 211 6.71573 211 15V138C211 146.284 204.284 153 196 153H15C6.71573 153 0 146.284 0 138V15Z" fill="#595353"/>
<path d="M21.1455 18.1357H19.4844L18.4795 22.1484H20.708L21.1455 18.1357ZM23.9961 18.1357H22.335L21.3301 22.1484H23.5586L23.9961 18.1357Z" fill="white"/>
<path d="M25.1855 28H27.6943V24.0283H31.625V28H34.127V18.1357H31.625V22.0117H27.6943V18.1357H25.1855V28Z" fill="white"/>
<path d="M37.5654 28.1025C38.5361 28.1025 39.2744 27.6787 39.6982 26.9473H39.7461V28H42.166V22.9209C42.166 21.4102 40.8467 20.3984 38.8438 20.3984C36.7725 20.3984 35.5352 21.3896 35.4189 22.8389L35.4121 22.9277H37.5928L37.6064 22.8594C37.6885 22.4766 38.0713 22.1758 38.7207 22.1758C39.3975 22.1758 39.7461 22.5107 39.7461 23.0508V23.4199L38.0508 23.5293C36.1299 23.6592 35.0498 24.4453 35.0498 25.8467V25.8535C35.0498 27.1523 36.0684 28.1025 37.5654 28.1025ZM37.4287 25.6963V25.6895C37.4287 25.2451 37.7637 24.9648 38.4404 24.9238L39.7461 24.835V25.334C39.7461 25.9629 39.1924 26.4277 38.4131 26.4277C37.8184 26.4277 37.4287 26.1611 37.4287 25.6963Z" fill="white"/>
<path d="M43.3281 28H45.7549V23.7754C45.7549 22.9482 46.2334 22.374 47.0059 22.374C47.7988 22.374 48.2021 22.873 48.2021 23.7275V28H50.6221V23.208C50.6221 21.4443 49.6992 20.3984 48.0654 20.3984C46.9375 20.3984 46.1719 20.9316 45.8027 21.8682H45.7549V20.5557H43.3281V28Z" fill="white"/>
<path d="M54.5049 28.1572C55.5781 28.1572 56.3916 27.6172 56.7607 26.7285H56.8086V28H59.2285V18.1357H56.8086V21.875H56.7607C56.3848 20.9521 55.5713 20.3984 54.5049 20.3984C52.6318 20.3984 51.5381 21.8066 51.5381 24.2744V24.2812C51.5381 26.7285 52.6455 28.1572 54.5049 28.1572ZM55.4004 26.1885C54.5459 26.1885 53.999 25.457 53.999 24.2812V24.2744C53.999 23.085 54.5459 22.374 55.4004 22.374C56.2412 22.374 56.8086 23.0918 56.8086 24.2744V24.2812C56.8086 25.4639 56.248 26.1885 55.4004 26.1885Z" fill="white"/>
<path d="M61.8125 30.4268C63.624 30.4268 64.7998 29.8936 65.4082 27.9658L67.7803 20.5557H65.2236L63.8975 26.1816H63.8359L62.5029 20.5557H59.8232L62.3867 28L62.332 28.1572C62.209 28.4854 61.9287 28.6426 61.416 28.6426C61.04 28.6426 60.7529 28.6016 60.5957 28.5674V30.3242C60.8691 30.3721 61.334 30.4268 61.8125 30.4268Z" fill="white"/>
<path d="M68.3477 28H70.7744V23.5977C70.7744 22.8594 71.1982 22.374 71.8545 22.374C72.5176 22.374 72.8867 22.7842 72.8867 23.5361V28H75.2041V23.584C75.2041 22.8457 75.6143 22.374 76.2705 22.374C76.9541 22.374 77.3164 22.7773 77.3164 23.5566V28H79.7432V22.9346C79.7432 21.4238 78.752 20.3984 77.2959 20.3984C76.1885 20.3984 75.2861 21.0273 74.999 21.9912H74.9512C74.7393 20.9795 73.9805 20.3984 72.9209 20.3984C71.9023 20.3984 71.1094 20.9863 70.8223 21.8955H70.7744V20.5557H68.3477V28Z" fill="white"/>
<path d="M83.1201 28.1025C84.0908 28.1025 84.8291 27.6787 85.2529 26.9473H85.3008V28H87.7207V22.9209C87.7207 21.4102 86.4014 20.3984 84.3984 20.3984C82.3271 20.3984 81.0898 21.3896 80.9736 22.8389L80.9668 22.9277H83.1475L83.1611 22.8594C83.2432 22.4766 83.626 22.1758 84.2754 22.1758C84.9521 22.1758 85.3008 22.5107 85.3008 23.0508V23.4199L83.6055 23.5293C81.6846 23.6592 80.6045 24.4453 80.6045 25.8467V25.8535C80.6045 27.1523 81.623 28.1025 83.1201 28.1025ZM82.9834 25.6963V25.6895C82.9834 25.2451 83.3184 24.9648 83.9951 24.9238L85.3008 24.835V25.334C85.3008 25.9629 84.7471 26.4277 83.9678 26.4277C83.373 26.4277 82.9834 26.1611 82.9834 25.6963Z" fill="white"/>
<path d="M88.8828 28H91.3096V23.7754C91.3096 22.9482 91.7881 22.374 92.5605 22.374C93.3535 22.374 93.7568 22.873 93.7568 23.7275V28H96.1768V23.208C96.1768 21.4443 95.2539 20.3984 93.6201 20.3984C92.4922 20.3984 91.7266 20.9316 91.3574 21.8682H91.3096V20.5557H88.8828V28Z" fill="white"/>
<path d="M97.1201 22.1484H98.7812L99.7861 18.1357H97.5576L97.1201 22.1484ZM99.9707 22.1484H101.632L102.637 18.1357H100.415L99.9707 22.1484Z" fill="white"/>
<path d="M108.659 28H111.127L112.686 22.0801H112.733L114.299 28H116.767L119.344 18.1357H116.753L115.413 24.6572H115.365L113.766 18.1357H111.66L110.061 24.6572H110.013L108.673 18.1357H106.082L108.659 28Z" fill="white"/>
<path d="M122.926 28.1572C125.271 28.1572 126.733 26.7422 126.733 24.2812V24.2676C126.733 21.8408 125.243 20.3984 122.926 20.3984C120.615 20.3984 119.118 21.8545 119.118 24.2676V24.2812C119.118 26.7354 120.567 28.1572 122.926 28.1572ZM122.933 26.3184C122.092 26.3184 121.579 25.5938 121.579 24.2812V24.2676C121.579 22.9824 122.105 22.2373 122.926 22.2373C123.746 22.2373 124.279 22.9824 124.279 24.2676V24.2812C124.279 25.5869 123.76 26.3184 122.933 26.3184Z" fill="white"/>
<path d="M130.199 28.1572C131.327 28.1572 132.086 27.624 132.462 26.6875H132.51V28H134.93V20.5557H132.51V24.7803C132.51 25.6074 132.024 26.1885 131.259 26.1885C130.459 26.1885 130.062 25.6826 130.062 24.8281V20.5557H127.636V25.3477C127.636 27.1113 128.565 28.1572 130.199 28.1572Z" fill="white"/>
<path d="M136.146 28H138.573V18.1357H136.146V28Z" fill="white"/>
<path d="M142.524 28.1572C143.598 28.1572 144.411 27.6172 144.78 26.7285H144.828V28H147.248V18.1357H144.828V21.875H144.78C144.404 20.9521 143.591 20.3984 142.524 20.3984C140.651 20.3984 139.558 21.8066 139.558 24.2744V24.2812C139.558 26.7285 140.665 28.1572 142.524 28.1572ZM143.42 26.1885C142.565 26.1885 142.019 25.457 142.019 24.2812V24.2744C142.019 23.085 142.565 22.374 143.42 22.374C144.261 22.374 144.828 23.0918 144.828 24.2744V24.2812C144.828 25.4639 144.268 26.1885 143.42 26.1885Z" fill="white"/>
<path d="M151.322 28H157.912V25.9834H153.831V18.1357H151.322V28Z" fill="white"/>
<path d="M160.127 19.7559C160.831 19.7559 161.364 19.209 161.364 18.5596C161.364 17.9102 160.831 17.3701 160.127 17.3701C159.43 17.3701 158.89 17.9102 158.89 18.5596C158.89 19.209 159.43 19.7559 160.127 19.7559ZM158.917 28H161.337V20.5557H158.917V28Z" fill="white"/>
<path d="M162.574 28H164.994V25.71L165.432 25.1836L167.243 28H170.032L167.25 23.7412L169.875 20.5557H167.175L165.042 23.3789H164.994V18.1357H162.574V28Z" fill="white"/>
<path d="M173.648 28.1572C176.021 28.1572 176.957 26.7627 177.183 25.7305L177.203 25.6484H175.016L175.009 25.6826C174.899 25.9902 174.476 26.4346 173.696 26.4346C172.814 26.4346 172.268 25.8398 172.24 24.835H177.244V24.124C177.244 21.8682 175.815 20.3984 173.566 20.3984C171.304 20.3984 169.868 21.8818 169.868 24.2744V24.2812C169.868 26.6875 171.297 28.1572 173.648 28.1572ZM173.621 22.1211C174.332 22.1211 174.838 22.5723 174.961 23.4062H172.274C172.397 22.5859 172.91 22.1211 173.621 22.1211Z" fill="white"/>
<path d="M184.142 28.1572C184.647 28.1572 185.01 28.1162 185.276 28.0684V26.3457C185.14 26.3662 185.017 26.3799 184.825 26.3799C184.23 26.3799 183.943 26.1406 183.943 25.498V22.333H185.276V20.5557H183.943V18.8398H181.517V20.5557H180.505V22.333H181.517V25.8262C181.517 27.5078 182.337 28.1572 184.142 28.1572Z" fill="white"/>
<path d="M189.809 28.1572C192.153 28.1572 193.616 26.7422 193.616 24.2812V24.2676C193.616 21.8408 192.126 20.3984 189.809 20.3984C187.498 20.3984 186.001 21.8545 186.001 24.2676V24.2812C186.001 26.7354 187.45 28.1572 189.809 28.1572ZM189.815 26.3184C188.975 26.3184 188.462 25.5938 188.462 24.2812V24.2676C188.462 22.9824 188.988 22.2373 189.809 22.2373C190.629 22.2373 191.162 22.9824 191.162 24.2676V24.2812C191.162 25.5869 190.643 26.3184 189.815 26.3184Z" fill="white"/>
<path d="M35.3848 45.1777C37.9961 45.1777 39.541 43.9268 39.541 41.958V41.9512C39.541 40.3721 38.5703 39.5244 36.4785 39.1211L35.4668 38.9297C34.4072 38.7314 33.9424 38.4512 33.9424 37.918V37.9111C33.9424 37.3438 34.4619 36.9268 35.3848 36.9268C36.2871 36.9268 36.9229 37.3301 36.998 37.9795L37.0049 38.0547H39.3359L39.3291 37.9111C39.2402 36.1201 37.8389 34.958 35.3643 34.958C33.1016 34.958 31.4541 36.1816 31.4541 38.082V38.0889C31.4541 39.5996 32.4863 40.5635 34.4414 40.9258L35.4531 41.1172C36.6084 41.3428 37.0459 41.6025 37.0459 42.1631V42.1699C37.0459 42.7852 36.4307 43.209 35.4326 43.209C34.4688 43.209 33.7305 42.792 33.6074 42.1562L33.5938 42.0811H31.2627L31.2695 42.2041C31.3789 44.0908 32.9307 45.1777 35.3848 45.1777Z" fill="white"/>
<path d="M44.0938 45.1572C46.4658 45.1572 47.4023 43.7627 47.6279 42.7305L47.6484 42.6484H45.4609L45.4541 42.6826C45.3447 42.9902 44.9209 43.4346 44.1416 43.4346C43.2598 43.4346 42.7129 42.8398 42.6855 41.835H47.6895V41.124C47.6895 38.8682 46.2607 37.3984 44.0117 37.3984C41.749 37.3984 40.3135 38.8818 40.3135 41.2744V41.2812C40.3135 43.6875 41.7422 45.1572 44.0938 45.1572ZM44.0664 39.1211C44.7773 39.1211 45.2832 39.5723 45.4062 40.4062H42.7197C42.8428 39.5859 43.3555 39.1211 44.0664 39.1211Z" fill="white"/>
<path d="M48.6328 45H51.0596V40.7754C51.0596 39.9482 51.5381 39.374 52.3105 39.374C53.1035 39.374 53.5068 39.873 53.5068 40.7275V45H55.9268V40.208C55.9268 38.4443 55.0039 37.3984 53.3701 37.3984C52.2422 37.3984 51.4766 37.9316 51.1074 38.8682H51.0596V37.5557H48.6328V45Z" fill="white"/>
<path d="M59.8096 45.1572C60.8828 45.1572 61.6963 44.6172 62.0654 43.7285H62.1133V45H64.5332V35.1357H62.1133V38.875H62.0654C61.6895 37.9521 60.876 37.3984 59.8096 37.3984C57.9365 37.3984 56.8428 38.8066 56.8428 41.2744V41.2812C56.8428 43.7285 57.9502 45.1572 59.8096 45.1572ZM60.7051 43.1885C59.8506 43.1885 59.3037 42.457 59.3037 41.2812V41.2744C59.3037 40.085 59.8506 39.374 60.7051 39.374C61.5459 39.374 62.1133 40.0918 62.1133 41.2744V41.2812C62.1133 42.4639 61.5527 43.1885 60.7051 43.1885Z" fill="white"/>
<path d="M71.458 45H73.9668V41.6094L77.3643 35.1357H74.6982L72.7363 39.2373H72.6885L70.7266 35.1357H68.0605L71.458 41.6094V45Z" fill="white"/>
<path d="M80.1191 45.1572C82.4639 45.1572 83.9268 43.7422 83.9268 41.2812V41.2676C83.9268 38.8408 82.4365 37.3984 80.1191 37.3984C77.8086 37.3984 76.3115 38.8545 76.3115 41.2676V41.2812C76.3115 43.7354 77.7607 45.1572 80.1191 45.1572ZM80.126 43.3184C79.2852 43.3184 78.7725 42.5938 78.7725 41.2812V41.2676C78.7725 39.9824 79.2988 39.2373 80.1191 39.2373C80.9395 39.2373 81.4727 39.9824 81.4727 41.2676V41.2812C81.4727 42.5869 80.9531 43.3184 80.126 43.3184Z" fill="white"/>
<path d="M87.3926 45.1572C88.5205 45.1572 89.2793 44.624 89.6553 43.6875H89.7031V45H92.123V37.5557H89.7031V41.7803C89.7031 42.6074 89.2178 43.1885 88.4521 43.1885C87.6523 43.1885 87.2559 42.6826 87.2559 41.8281V37.5557H84.8291V42.3477C84.8291 44.1113 85.7588 45.1572 87.3926 45.1572Z" fill="white"/>
<path d="M96.1836 45H98.6855V39.2441H98.7334L102.698 45H104.804V35.1357H102.302V40.8301H102.254L98.3096 35.1357H96.1836V45Z" fill="white"/>
<path d="M109.719 45.1572C112.063 45.1572 113.526 43.7422 113.526 41.2812V41.2676C113.526 38.8408 112.036 37.3984 109.719 37.3984C107.408 37.3984 105.911 38.8545 105.911 41.2676V41.2812C105.911 43.7354 107.36 45.1572 109.719 45.1572ZM109.726 43.3184C108.885 43.3184 108.372 42.5938 108.372 41.2812V41.2676C108.372 39.9824 108.898 39.2373 109.719 39.2373C110.539 39.2373 111.072 39.9824 111.072 41.2676V41.2812C111.072 42.5869 110.553 43.3184 109.726 43.3184Z" fill="white"/>
<path d="M117.696 45.1572C118.202 45.1572 118.564 45.1162 118.831 45.0684V43.3457C118.694 43.3662 118.571 43.3799 118.38 43.3799C117.785 43.3799 117.498 43.1406 117.498 42.498V39.333H118.831V37.5557H117.498V35.8398H115.071V37.5557H114.06V39.333H115.071V42.8262C115.071 44.5078 115.892 45.1572 117.696 45.1572Z" fill="white"/>
<path d="M121.066 36.7559C121.771 36.7559 122.304 36.209 122.304 35.5596C122.304 34.9102 121.771 34.3701 121.066 34.3701C120.369 34.3701 119.829 34.9102 119.829 35.5596C119.829 36.209 120.369 36.7559 121.066 36.7559ZM119.856 45H122.276V37.5557H119.856V45Z" fill="white"/>
<path d="M124.067 45H126.494V39.333H127.875V37.5557H126.426V37.2344C126.426 36.8037 126.706 36.5508 127.376 36.5508C127.561 36.5508 127.752 36.5576 127.889 36.585V35.0811C127.622 35.0264 127.15 34.9785 126.727 34.9785C124.778 34.9785 124.067 35.6553 124.067 37.125V37.5557H123.076V39.333H124.067V45Z" fill="white"/>
<path d="M130.062 36.7559C130.767 36.7559 131.3 36.209 131.3 35.5596C131.3 34.9102 130.767 34.3701 130.062 34.3701C129.365 34.3701 128.825 34.9102 128.825 35.5596C128.825 36.209 129.365 36.7559 130.062 36.7559ZM128.853 45H131.272V37.5557H128.853V45Z" fill="white"/>
<path d="M136.017 45.1572C138.163 45.1572 139.469 43.8584 139.517 42.1289V42.0811H137.295L137.281 42.1494C137.186 42.8604 136.755 43.3184 136.044 43.3184C135.183 43.3184 134.69 42.5938 134.69 41.2812V41.2744C134.69 39.9824 135.196 39.2373 136.037 39.2373C136.748 39.2373 137.186 39.7158 137.281 40.4062L137.288 40.4746H139.517L139.51 40.4268C139.476 38.6562 138.095 37.3984 135.996 37.3984C133.679 37.3984 132.229 38.8682 132.229 41.2676V41.2744C132.229 43.6875 133.672 45.1572 136.017 45.1572Z" fill="white"/>
<path d="M142.647 45.1025C143.618 45.1025 144.356 44.6787 144.78 43.9473H144.828V45H147.248V39.9209C147.248 38.4102 145.929 37.3984 143.926 37.3984C141.854 37.3984 140.617 38.3896 140.501 39.8389L140.494 39.9277H142.675L142.688 39.8594C142.771 39.4766 143.153 39.1758 143.803 39.1758C144.479 39.1758 144.828 39.5107 144.828 40.0508V40.4199L143.133 40.5293C141.212 40.6592 140.132 41.4453 140.132 42.8467V42.8535C140.132 44.1523 141.15 45.1025 142.647 45.1025ZM142.511 42.6963V42.6895C142.511 42.2451 142.846 41.9648 143.522 41.9238L144.828 41.835V42.334C144.828 42.9629 144.274 43.4277 143.495 43.4277C142.9 43.4277 142.511 43.1611 142.511 42.6963Z" fill="white"/>
<path d="M151.644 45.1572C152.149 45.1572 152.512 45.1162 152.778 45.0684V43.3457C152.642 43.3662 152.519 43.3799 152.327 43.3799C151.732 43.3799 151.445 43.1406 151.445 42.498V39.333H152.778V37.5557H151.445V35.8398H149.019V37.5557H148.007V39.333H149.019V42.8262C149.019 44.5078 149.839 45.1572 151.644 45.1572Z" fill="white"/>
<path d="M155.014 36.7559C155.718 36.7559 156.251 36.209 156.251 35.5596C156.251 34.9102 155.718 34.3701 155.014 34.3701C154.316 34.3701 153.776 34.9102 153.776 35.5596C153.776 36.209 154.316 36.7559 155.014 36.7559ZM153.804 45H156.224V37.5557H153.804V45Z" fill="white"/>
<path d="M160.988 45.1572C163.333 45.1572 164.796 43.7422 164.796 41.2812V41.2676C164.796 38.8408 163.306 37.3984 160.988 37.3984C158.678 37.3984 157.181 38.8545 157.181 41.2676V41.2812C157.181 43.7354 158.63 45.1572 160.988 45.1572ZM160.995 43.3184C160.154 43.3184 159.642 42.5938 159.642 41.2812V41.2676C159.642 39.9824 160.168 39.2373 160.988 39.2373C161.809 39.2373 162.342 39.9824 162.342 41.2676V41.2812C162.342 42.5869 161.822 43.3184 160.995 43.3184Z" fill="white"/>
<path d="M165.732 45H168.159V40.7754C168.159 39.9482 168.638 39.374 169.41 39.374C170.203 39.374 170.606 39.873 170.606 40.7275V45H173.026V40.208C173.026 38.4443 172.104 37.3984 170.47 37.3984C169.342 37.3984 168.576 37.9316 168.207 38.8682H168.159V37.5557H165.732V45Z" fill="white"/>
<path d="M177.442 45.1572C179.486 45.1572 180.881 44.1797 180.881 42.6416V42.6348C180.881 41.5205 180.197 40.9053 178.618 40.5908L177.306 40.3311C176.602 40.1875 176.376 39.9961 176.376 39.6748V39.668C176.376 39.2783 176.759 39.0322 177.354 39.0322C178.023 39.0322 178.399 39.3945 178.454 39.832L178.461 39.8867H180.676L180.669 39.832C180.648 38.499 179.507 37.3984 177.354 37.3984C175.316 37.3984 174.045 38.3213 174.045 39.8047V39.8115C174.045 40.9463 174.804 41.7051 176.26 41.9854L177.572 42.2451C178.235 42.3818 178.475 42.5664 178.475 42.9014V42.9082C178.475 43.291 178.085 43.5234 177.442 43.5234C176.731 43.5234 176.349 43.2295 176.232 42.7236L176.219 42.6689H173.867L173.874 42.7305C174.038 44.1797 175.228 45.1572 177.442 45.1572Z" fill="white"/>
<path d="M31.519 63H32.7114V57.2583H32.7437L36.7344 63H37.8408V55.2495H36.6484V60.9805H36.6162L32.6309 55.2495H31.519V63Z" fill="white"/>
<path d="M41.563 63.1128C43.1797 63.1128 44.2432 61.9956 44.2432 60.1748V60.1641C44.2432 58.354 43.1689 57.2422 41.5576 57.2422C39.9517 57.2422 38.8828 58.3594 38.8828 60.1641V60.1748C38.8828 61.9902 39.9409 63.1128 41.563 63.1128ZM41.5684 62.1406C40.6606 62.1406 40.0698 61.4263 40.0698 60.1748V60.1641C40.0698 58.9287 40.666 58.2144 41.5576 58.2144C42.4653 58.2144 43.0562 58.9287 43.0562 60.1641V60.1748C43.0562 61.4209 42.4761 62.1406 41.5684 62.1406Z" fill="white"/>
<path d="M47.1221 63.1128C47.3584 63.1128 47.5786 63.0859 47.7129 63.0645V62.1675C47.627 62.1782 47.5249 62.189 47.4014 62.189C46.9126 62.189 46.6548 62.0171 46.6548 61.4424V58.2734H47.7129V57.3496H46.6548V55.8779H45.4678V57.3496H44.6567V58.2734H45.4678V61.5122C45.4678 62.6401 46.0049 63.1128 47.1221 63.1128Z" fill="white"/>
<path d="M49.3027 56.4795C49.6841 56.4795 49.9795 56.1787 49.9795 55.8135C49.9795 55.4429 49.6841 55.1421 49.3027 55.1421C48.9268 55.1421 48.626 55.4429 48.626 55.8135C48.626 56.1787 48.9268 56.4795 49.3027 56.4795ZM48.7227 63H49.8828V57.3496H48.7227V63Z" fill="white"/>
<path d="M51.4189 63H52.5845V58.2734H53.7124V57.3496H52.563V56.7695C52.563 56.27 52.8101 56.0176 53.3311 56.0176C53.4761 56.0176 53.6211 56.0283 53.7339 56.0444V55.1851C53.5781 55.1582 53.3203 55.1367 53.084 55.1367C51.9346 55.1367 51.4189 55.6523 51.4189 56.748V57.3496H50.6401V58.2734H51.4189V63Z" fill="white"/>
<path d="M55.2539 56.4795C55.6353 56.4795 55.9307 56.1787 55.9307 55.8135C55.9307 55.4429 55.6353 55.1421 55.2539 55.1421C54.8779 55.1421 54.5771 55.4429 54.5771 55.8135C54.5771 56.1787 54.8779 56.4795 55.2539 56.4795ZM54.6738 63H55.834V57.3496H54.6738V63Z" fill="white"/>
<path d="M59.4595 63.1128C60.8184 63.1128 61.7637 62.2427 61.8872 61.1094L61.8926 61.0718H60.7754L60.77 61.1147C60.6304 61.7271 60.1738 62.1406 59.4595 62.1406C58.5625 62.1406 57.9663 61.4155 57.9663 60.1802V60.1748C57.9663 58.9663 58.5518 58.2144 59.4541 58.2144C60.2114 58.2144 60.6411 58.6816 60.7646 59.2349L60.7754 59.2778H61.8818L61.8765 59.2402C61.7798 58.1768 60.8989 57.2422 59.4434 57.2422C57.832 57.2422 56.7793 58.3755 56.7793 60.1641V60.1694C56.7793 61.9795 57.8105 63.1128 59.4595 63.1128Z" fill="white"/>
<path d="M64.374 63.1021C65.1206 63.1021 65.7759 62.7153 66.1035 62.1084H66.125V63H67.2905V59.106C67.2905 57.9727 66.415 57.2422 65.0347 57.2422C63.6436 57.2422 62.8003 57.9888 62.7197 58.9609L62.7144 59.02H63.8101L63.8208 58.9717C63.9175 58.5205 64.3311 58.2036 65.0024 58.2036C65.7222 58.2036 66.125 58.5796 66.125 59.2026V59.627L64.5889 59.7183C63.2515 59.7988 62.4888 60.4004 62.4888 61.3833V61.394C62.4888 62.4092 63.2461 63.1021 64.374 63.1021ZM63.6597 61.3672V61.3564C63.6597 60.8784 64.0464 60.5723 64.7446 60.5293L66.125 60.4434V60.8838C66.125 61.6196 65.5073 62.1729 64.6909 62.1729C64.0679 62.1729 63.6597 61.8613 63.6597 61.3672Z" fill="white"/>
<path d="M70.4004 63.1128C70.6367 63.1128 70.8569 63.0859 70.9912 63.0645V62.1675C70.9053 62.1782 70.8032 62.189 70.6797 62.189C70.1909 62.189 69.9331 62.0171 69.9331 61.4424V58.2734H70.9912V57.3496H69.9331V55.8779H68.7461V57.3496H67.9351V58.2734H68.7461V61.5122C68.7461 62.6401 69.2832 63.1128 70.4004 63.1128Z" fill="white"/>
<path d="M72.5811 56.4795C72.9624 56.4795 73.2578 56.1787 73.2578 55.8135C73.2578 55.4429 72.9624 55.1421 72.5811 55.1421C72.2051 55.1421 71.9043 55.4429 71.9043 55.8135C71.9043 56.1787 72.2051 56.4795 72.5811 56.4795ZM72.001 63H73.1611V57.3496H72.001V63Z" fill="white"/>
<path d="M76.7866 63.1128C78.4033 63.1128 79.4668 61.9956 79.4668 60.1748V60.1641C79.4668 58.354 78.3926 57.2422 76.7812 57.2422C75.1753 57.2422 74.1064 58.3594 74.1064 60.1641V60.1748C74.1064 61.9902 75.1646 63.1128 76.7866 63.1128ZM76.792 62.1406C75.8843 62.1406 75.2935 61.4263 75.2935 60.1748V60.1641C75.2935 58.9287 75.8896 58.2144 76.7812 58.2144C77.689 58.2144 78.2798 58.9287 78.2798 60.1641V60.1748C78.2798 61.4209 77.6997 62.1406 76.792 62.1406Z" fill="white"/>
<path d="M80.3638 63H81.5239V59.7075C81.5239 58.8267 82.0503 58.2358 82.8667 58.2358C83.6724 58.2358 84.0698 58.7139 84.0698 59.5625V63H85.2354V59.3423C85.2354 58.0425 84.521 57.2422 83.2803 57.2422C82.4263 57.2422 81.8462 57.6289 81.5508 58.2036H81.5239V57.3496H80.3638V63Z" fill="white"/>
<path d="M88.4741 63.1128C89.8062 63.1128 90.7729 62.4038 90.7729 61.3726V61.3672C90.7729 60.5562 90.3325 60.0996 89.1777 59.8311L88.2593 59.6216C87.6523 59.4766 87.4214 59.2402 87.4214 58.8911V58.8857C87.4214 58.4346 87.8135 58.1392 88.4365 58.1392C89.0918 58.1392 89.4785 58.4829 89.5483 58.9771L89.5537 59.0146H90.644L90.6387 58.9502C90.5796 57.9888 89.7739 57.2422 88.4365 57.2422C87.1367 57.2422 86.2559 57.9351 86.2559 58.9448V58.9502C86.2559 59.772 86.7876 60.2876 87.8618 60.5347L88.7856 60.7441C89.3926 60.8892 89.5967 61.0986 89.5967 61.4639V61.4692C89.5967 61.9258 89.1777 62.2158 88.4795 62.2158C87.7651 62.2158 87.3784 61.9097 87.271 61.3887L87.2603 61.335H86.1108L86.1162 61.3833C86.2344 62.4146 87.0615 63.1128 88.4741 63.1128Z" fill="white"/>
<path d="M93.9097 63H95.0698V59.5088C95.0698 58.7783 95.5586 58.2358 96.2461 58.2358C96.9014 58.2358 97.3149 58.6548 97.3149 59.3101V63H98.4536V59.4658C98.4536 58.7515 98.9316 58.2358 99.6191 58.2358C100.307 58.2358 100.699 58.6602 100.699 59.396V63H101.864V59.1167C101.864 57.9834 101.134 57.2422 100.017 57.2422C99.2109 57.2422 98.5449 57.6665 98.2549 58.354H98.228C98.0024 57.645 97.4331 57.2422 96.6543 57.2422C95.9131 57.2422 95.3384 57.6343 95.0967 58.2251H95.0698V57.3496H93.9097V63Z" fill="white"/>
<path d="M104.646 63.1021C105.393 63.1021 106.048 62.7153 106.376 62.1084H106.397V63H107.563V59.106C107.563 57.9727 106.688 57.2422 105.307 57.2422C103.916 57.2422 103.073 57.9888 102.992 58.9609L102.987 59.02H104.083L104.093 58.9717C104.19 58.5205 104.604 58.2036 105.275 58.2036C105.995 58.2036 106.397 58.5796 106.397 59.2026V59.627L104.861 59.7183C103.524 59.7988 102.761 60.4004 102.761 61.3833V61.394C102.761 62.4092 103.519 63.1021 104.646 63.1021ZM103.932 61.3672V61.3564C103.932 60.8784 104.319 60.5723 105.017 60.5293L106.397 60.4434V60.8838C106.397 61.6196 105.78 62.1729 104.963 62.1729C104.34 62.1729 103.932 61.8613 103.932 61.3672Z" fill="white"/>
<path d="M109.346 64.8853C110.453 64.8853 111.043 64.4341 111.462 63.2632L113.568 57.3496H112.343L110.92 61.9473H110.882L109.459 57.3496H108.202L110.259 63.0054L110.163 63.2739C109.969 63.8218 109.668 63.9668 109.121 63.9668C108.965 63.9668 108.831 63.9453 108.739 63.9238V64.8315C108.879 64.8584 109.121 64.8853 109.346 64.8853Z" fill="white"/>
<path d="M117.107 56.4795C117.489 56.4795 117.784 56.1787 117.784 55.8135C117.784 55.4429 117.489 55.1421 117.107 55.1421C116.731 55.1421 116.431 55.4429 116.431 55.8135C116.431 56.1787 116.731 56.4795 117.107 56.4795ZM116.527 63H117.688V57.3496H116.527V63Z" fill="white"/>
<path d="M118.885 63H120.045V59.7075C120.045 58.8267 120.572 58.2358 121.388 58.2358C122.194 58.2358 122.591 58.7139 122.591 59.5625V63H123.757V59.3423C123.757 58.0425 123.042 57.2422 121.802 57.2422C120.948 57.2422 120.368 57.6289 120.072 58.2036H120.045V57.3496H118.885V63Z" fill="white"/>
<path d="M127.307 63.1128C128.666 63.1128 129.611 62.2427 129.735 61.1094L129.74 61.0718H128.623L128.618 61.1147C128.478 61.7271 128.021 62.1406 127.307 62.1406C126.41 62.1406 125.814 61.4155 125.814 60.1802V60.1748C125.814 58.9663 126.399 58.2144 127.302 58.2144C128.059 58.2144 128.489 58.6816 128.612 59.2349L128.623 59.2778H129.729L129.724 59.2402C129.627 58.1768 128.747 57.2422 127.291 57.2422C125.68 57.2422 124.627 58.3755 124.627 60.1641V60.1694C124.627 61.9795 125.658 63.1128 127.307 63.1128Z" fill="white"/>
<path d="M130.605 63H131.765V55.2495H130.605V63Z" fill="white"/>
<path d="M134.88 63.1128C135.74 63.1128 136.314 62.7207 136.61 62.1514H136.637V63H137.802V57.3496H136.637V60.6475C136.637 61.5283 136.11 62.1138 135.294 62.1138C134.488 62.1138 134.091 61.6411 134.091 60.7871V57.3496H132.931V61.0127C132.931 62.3125 133.64 63.1128 134.88 63.1128Z" fill="white"/>
<path d="M141.062 63.1128C141.874 63.1128 142.497 62.7046 142.835 62.0439H142.856V63H144.022V55.2495H142.856V58.311H142.835C142.497 57.645 141.852 57.2422 141.052 57.2422C139.634 57.2422 138.699 58.3701 138.699 60.1694V60.1748C138.699 61.9741 139.623 63.1128 141.062 63.1128ZM141.369 62.1138C140.45 62.1138 139.886 61.3779 139.886 60.1748V60.1694C139.886 58.9771 140.456 58.2358 141.369 58.2358C142.239 58.2358 142.862 58.9985 142.862 60.1694V60.1748C142.862 61.3511 142.244 62.1138 141.369 62.1138Z" fill="white"/>
<path d="M147.626 63.1128C148.996 63.1128 149.866 62.2964 150.048 61.3994L150.059 61.3403H148.958L148.942 61.3833C148.797 61.8076 148.34 62.1621 147.653 62.1621C146.729 62.1621 146.144 61.5391 146.122 60.4702H150.124V60.0781C150.124 58.3809 149.151 57.2422 147.567 57.2422C145.982 57.2422 144.962 58.4238 144.962 60.1909V60.1963C144.962 61.9795 145.966 63.1128 147.626 63.1128ZM147.572 58.1929C148.33 58.1929 148.877 58.6709 148.974 59.6484H146.138C146.24 58.7031 146.82 58.1929 147.572 58.1929Z" fill="white"/>
<path d="M154.92 63.1021C155.667 63.1021 156.322 62.7153 156.649 62.1084H156.671V63H157.836V59.106C157.836 57.9727 156.961 57.2422 155.581 57.2422C154.189 57.2422 153.346 57.9888 153.266 58.9609L153.26 59.02H154.356L154.367 58.9717C154.463 58.5205 154.877 58.2036 155.548 58.2036C156.268 58.2036 156.671 58.5796 156.671 59.2026V59.627L155.135 59.7183C153.797 59.7988 153.035 60.4004 153.035 61.3833V61.394C153.035 62.4092 153.792 63.1021 154.92 63.1021ZM154.206 61.3672V61.3564C154.206 60.8784 154.592 60.5723 155.291 60.5293L156.671 60.4434V60.8838C156.671 61.6196 156.053 62.1729 155.237 62.1729C154.614 62.1729 154.206 61.8613 154.206 61.3672Z" fill="white"/>
<path d="M159.007 63H160.167V55.2495H159.007V63Z" fill="white"/>
<path d="M163.771 63.1128C165.141 63.1128 166.011 62.2964 166.194 61.3994L166.205 61.3403H165.104L165.087 61.3833C164.942 61.8076 164.486 62.1621 163.798 62.1621C162.875 62.1621 162.289 61.5391 162.268 60.4702H166.269V60.0781C166.269 58.3809 165.297 57.2422 163.712 57.2422C162.128 57.2422 161.107 58.4238 161.107 60.1909V60.1963C161.107 61.9795 162.112 63.1128 163.771 63.1128ZM163.718 58.1929C164.475 58.1929 165.023 58.6709 165.12 59.6484H162.284C162.386 58.7031 162.966 58.1929 163.718 58.1929Z" fill="white"/>
<path d="M167.171 63H168.332V59.6323C168.332 58.7891 168.793 58.3003 169.54 58.3003C169.766 58.3003 169.97 58.3271 170.061 58.3647V57.2852C169.97 57.269 169.825 57.2422 169.658 57.2422C169.014 57.2422 168.541 57.6558 168.358 58.3164H168.332V57.3496H167.171V63Z" fill="white"/>
<path d="M173.01 63.1128C173.246 63.1128 173.466 63.0859 173.601 63.0645V62.1675C173.515 62.1782 173.413 62.189 173.289 62.189C172.8 62.189 172.542 62.0171 172.542 61.4424V58.2734H173.601V57.3496H172.542V55.8779H171.355V57.3496H170.544V58.2734H171.355V61.5122C171.355 62.6401 171.893 63.1128 173.01 63.1128Z" fill="white"/>
<path d="M176.678 63.1128C178.01 63.1128 178.977 62.4038 178.977 61.3726V61.3672C178.977 60.5562 178.537 60.0996 177.382 59.8311L176.463 59.6216C175.856 59.4766 175.625 59.2402 175.625 58.8911V58.8857C175.625 58.4346 176.018 58.1392 176.641 58.1392C177.296 58.1392 177.683 58.4829 177.752 58.9771L177.758 59.0146H178.848L178.843 58.9502C178.784 57.9888 177.978 57.2422 176.641 57.2422C175.341 57.2422 174.46 57.9351 174.46 58.9448V58.9502C174.46 59.772 174.992 60.2876 176.066 60.5347L176.99 60.7441C177.597 60.8892 177.801 61.0986 177.801 61.4639V61.4692C177.801 61.9258 177.382 62.2158 176.684 62.2158C175.969 62.2158 175.583 61.9097 175.475 61.3887L175.464 61.335H174.315L174.32 61.3833C174.438 62.4146 175.266 63.1128 176.678 63.1128Z" fill="white"/>
<path d="M179.53 64.5576H180.347L181.131 61.8076H179.971L179.53 64.5576Z" fill="white"/>
<path d="M24.4453 76.1128C25.7773 76.1128 26.7441 75.4038 26.7441 74.3726V74.3672C26.7441 73.5562 26.3037 73.0996 25.1489 72.8311L24.2305 72.6216C23.6235 72.4766 23.3926 72.2402 23.3926 71.8911V71.8857C23.3926 71.4346 23.7847 71.1392 24.4077 71.1392C25.063 71.1392 25.4497 71.4829 25.5195 71.9771L25.5249 72.0146H26.6152L26.6099 71.9502C26.5508 70.9888 25.7451 70.2422 24.4077 70.2422C23.1079 70.2422 22.2271 70.9351 22.2271 71.9448V71.9502C22.2271 72.772 22.7588 73.2876 23.833 73.5347L24.7568 73.7441C25.3638 73.8892 25.5679 74.0986 25.5679 74.4639V74.4692C25.5679 74.9258 25.1489 75.2158 24.4507 75.2158C23.7363 75.2158 23.3496 74.9097 23.2422 74.3887L23.2314 74.335H22.082L22.0874 74.3833C22.2056 75.4146 23.0327 76.1128 24.4453 76.1128Z" fill="white"/>
<path d="M30.0742 76.1128C31.6909 76.1128 32.7544 74.9956 32.7544 73.1748V73.1641C32.7544 71.354 31.6802 70.2422 30.0688 70.2422C28.4629 70.2422 27.394 71.3594 27.394 73.1641V73.1748C27.394 74.9902 28.4521 76.1128 30.0742 76.1128ZM30.0796 75.1406C29.1719 75.1406 28.5811 74.4263 28.5811 73.1748V73.1641C28.5811 71.9287 29.1772 71.2144 30.0688 71.2144C30.9766 71.2144 31.5674 71.9287 31.5674 73.1641V73.1748C31.5674 74.4209 30.9873 75.1406 30.0796 75.1406Z" fill="white"/>
<path d="M35.5742 76.1128C36.4336 76.1128 37.0083 75.7207 37.3037 75.1514H37.3306V76H38.4961V70.3496H37.3306V73.6475C37.3306 74.5283 36.8042 75.1138 35.9878 75.1138C35.1821 75.1138 34.7847 74.6411 34.7847 73.7871V70.3496H33.6245V74.0127C33.6245 75.3125 34.3335 76.1128 35.5742 76.1128Z" fill="white"/>
<path d="M39.6455 76H40.8057V72.7075C40.8057 71.8267 41.332 71.2358 42.1484 71.2358C42.9541 71.2358 43.3516 71.7139 43.3516 72.5625V76H44.5171V72.3423C44.5171 71.0425 43.8027 70.2422 42.562 70.2422C41.708 70.2422 41.1279 70.6289 40.8325 71.2036H40.8057V70.3496H39.6455V76Z" fill="white"/>
<path d="M47.7505 76.1128C48.5615 76.1128 49.1846 75.7046 49.5229 75.0439H49.5444V76H50.71V68.2495H49.5444V71.311H49.5229C49.1846 70.645 48.54 70.2422 47.7397 70.2422C46.3218 70.2422 45.3872 71.3701 45.3872 73.1694V73.1748C45.3872 74.9741 46.311 76.1128 47.7505 76.1128ZM48.0566 75.1138C47.1382 75.1138 46.5742 74.3779 46.5742 73.1748V73.1694C46.5742 71.9771 47.1436 71.2358 48.0566 71.2358C48.9268 71.2358 49.5498 71.9985 49.5498 73.1694V73.1748C49.5498 74.3511 48.9321 75.1138 48.0566 75.1138Z" fill="white"/>
<path d="M54.0186 76.1128C55.3506 76.1128 56.3174 75.4038 56.3174 74.3726V74.3672C56.3174 73.5562 55.877 73.0996 54.7222 72.8311L53.8037 72.6216C53.1968 72.4766 52.9658 72.2402 52.9658 71.8911V71.8857C52.9658 71.4346 53.3579 71.1392 53.981 71.1392C54.6362 71.1392 55.0229 71.4829 55.0928 71.9771L55.0981 72.0146H56.1885L56.1831 71.9502C56.124 70.9888 55.3184 70.2422 53.981 70.2422C52.6812 70.2422 51.8003 70.9351 51.8003 71.9448V71.9502C51.8003 72.772 52.332 73.2876 53.4062 73.5347L54.3301 73.7441C54.937 73.8892 55.1411 74.0986 55.1411 74.4639V74.4692C55.1411 74.9258 54.7222 75.2158 54.0239 75.2158C53.3096 75.2158 52.9229 74.9097 52.8154 74.3887L52.8047 74.335H51.6553L51.6606 74.3833C51.7788 75.4146 52.606 76.1128 54.0186 76.1128Z" fill="white"/>
<path d="M61.1138 76.1021C61.8604 76.1021 62.5156 75.7153 62.8433 75.1084H62.8647V76H64.0303V72.106C64.0303 70.9727 63.1548 70.2422 61.7744 70.2422C60.3833 70.2422 59.54 70.9888 59.4595 71.9609L59.4541 72.02H60.5498L60.5605 71.9717C60.6572 71.5205 61.0708 71.2036 61.7422 71.2036C62.4619 71.2036 62.8647 71.5796 62.8647 72.2026V72.627L61.3286 72.7183C59.9912 72.7988 59.2285 73.4004 59.2285 74.3833V74.394C59.2285 75.4092 59.9858 76.1021 61.1138 76.1021ZM60.3994 74.3672V74.3564C60.3994 73.8784 60.7861 73.5723 61.4844 73.5293L62.8647 73.4434V73.8838C62.8647 74.6196 62.2471 75.1729 61.4307 75.1729C60.8076 75.1729 60.3994 74.8613 60.3994 74.3672Z" fill="white"/>
<path d="M65.1582 76H66.3184V72.7075C66.3184 71.8267 66.8447 71.2358 67.6611 71.2358C68.4668 71.2358 68.8643 71.7139 68.8643 72.5625V76H70.0298V72.3423C70.0298 71.0425 69.3154 70.2422 68.0747 70.2422C67.2207 70.2422 66.6406 70.6289 66.3452 71.2036H66.3184V70.3496H65.1582V76Z" fill="white"/>
<path d="M73.2632 76.1128C74.0742 76.1128 74.6973 75.7046 75.0356 75.0439H75.0571V76H76.2227V68.2495H75.0571V71.311H75.0356C74.6973 70.645 74.0527 70.2422 73.2524 70.2422C71.8345 70.2422 70.8999 71.3701 70.8999 73.1694V73.1748C70.8999 74.9741 71.8237 76.1128 73.2632 76.1128ZM73.5693 75.1138C72.6509 75.1138 72.0869 74.3779 72.0869 73.1748V73.1694C72.0869 71.9771 72.6562 71.2358 73.5693 71.2358C74.4395 71.2358 75.0625 71.9985 75.0625 73.1694V73.1748C75.0625 74.3511 74.4448 75.1138 73.5693 75.1138Z" fill="white"/>
<path d="M80.2778 69.4795C80.6592 69.4795 80.9546 69.1787 80.9546 68.8135C80.9546 68.4429 80.6592 68.1421 80.2778 68.1421C79.9019 68.1421 79.6011 68.4429 79.6011 68.8135C79.6011 69.1787 79.9019 69.4795 80.2778 69.4795ZM79.6978 76H80.8579V70.3496H79.6978V76Z" fill="white"/>
<path d="M84.4834 76.1128C85.8423 76.1128 86.7876 75.2427 86.9111 74.1094L86.9165 74.0718H85.7993L85.7939 74.1147C85.6543 74.7271 85.1978 75.1406 84.4834 75.1406C83.5864 75.1406 82.9902 74.4155 82.9902 73.1802V73.1748C82.9902 71.9663 83.5757 71.2144 84.478 71.2144C85.2354 71.2144 85.665 71.6816 85.7886 72.2349L85.7993 72.2778H86.9058L86.9004 72.2402C86.8037 71.1768 85.9229 70.2422 84.4673 70.2422C82.856 70.2422 81.8032 71.3755 81.8032 73.1641V73.1694C81.8032 74.9795 82.8345 76.1128 84.4834 76.1128Z" fill="white"/>
<path d="M90.166 76.1128C91.7827 76.1128 92.8462 74.9956 92.8462 73.1748V73.1641C92.8462 71.354 91.772 70.2422 90.1606 70.2422C88.5547 70.2422 87.4858 71.3594 87.4858 73.1641V73.1748C87.4858 74.9902 88.5439 76.1128 90.166 76.1128ZM90.1714 75.1406C89.2637 75.1406 88.6729 74.4263 88.6729 73.1748V73.1641C88.6729 71.9287 89.269 71.2144 90.1606 71.2144C91.0684 71.2144 91.6592 71.9287 91.6592 73.1641V73.1748C91.6592 74.4209 91.0791 75.1406 90.1714 75.1406Z" fill="white"/>
<path d="M93.7432 76H94.9033V72.7075C94.9033 71.8267 95.4297 71.2358 96.2461 71.2358C97.0518 71.2358 97.4492 71.7139 97.4492 72.5625V76H98.6147V72.3423C98.6147 71.0425 97.9004 70.2422 96.6597 70.2422C95.8057 70.2422 95.2256 70.6289 94.9302 71.2036H94.9033V70.3496H93.7432V76Z" fill="white"/>
<path d="M104.974 76.1128C106.408 76.1128 107.337 74.9741 107.337 73.1748V73.1694C107.337 71.3701 106.403 70.2422 104.985 70.2422C104.185 70.2422 103.54 70.645 103.202 71.311H103.175V68.2495H102.015V76H103.175V75.0439H103.202C103.535 75.7046 104.163 76.1128 104.974 76.1128ZM104.668 75.1138C103.787 75.1138 103.169 74.3511 103.169 73.1748V73.1694C103.169 71.9985 103.792 71.2358 104.668 71.2358C105.581 71.2358 106.15 71.9771 106.15 73.1694V73.1748C106.15 74.3779 105.581 75.1138 104.668 75.1138Z" fill="white"/>
<path d="M109.894 76.1021C110.641 76.1021 111.296 75.7153 111.624 75.1084H111.645V76H112.811V72.106C112.811 70.9727 111.935 70.2422 110.555 70.2422C109.164 70.2422 108.32 70.9888 108.24 71.9609L108.234 72.02H109.33L109.341 71.9717C109.438 71.5205 109.851 71.2036 110.522 71.2036C111.242 71.2036 111.645 71.5796 111.645 72.2026V72.627L110.109 72.7183C108.771 72.7988 108.009 73.4004 108.009 74.3833V74.394C108.009 75.4092 108.766 76.1021 109.894 76.1021ZM109.18 74.3672V74.3564C109.18 73.8784 109.566 73.5723 110.265 73.5293L111.645 73.4434V73.8838C111.645 74.6196 111.027 75.1729 110.211 75.1729C109.588 75.1729 109.18 74.8613 109.18 74.3672Z" fill="white"/>
<path d="M116.049 76.1128C116.86 76.1128 117.483 75.7046 117.822 75.0439H117.843V76H119.009V68.2495H117.843V71.311H117.822C117.483 70.645 116.839 70.2422 116.039 70.2422C114.621 70.2422 113.686 71.3701 113.686 73.1694V73.1748C113.686 74.9741 114.61 76.1128 116.049 76.1128ZM116.355 75.1138C115.437 75.1138 114.873 74.3779 114.873 73.1748V73.1694C114.873 71.9771 115.442 71.2358 116.355 71.2358C117.226 71.2358 117.849 71.9985 117.849 73.1694V73.1748C117.849 74.3511 117.231 75.1138 116.355 75.1138Z" fill="white"/>
<path d="M122.677 77.9927C124.272 77.9927 125.271 77.1333 125.271 75.8442V70.3496H124.106V71.311H124.079C123.746 70.6719 123.123 70.2422 122.328 70.2422C120.894 70.2422 119.949 71.354 119.949 73.1265V73.1318C119.949 74.8936 120.883 76.0054 122.301 76.0054C123.112 76.0054 123.757 75.6133 124.079 75.001H124.106V75.7744C124.106 76.564 123.596 77.0581 122.672 77.0581C121.947 77.0581 121.458 76.811 121.302 76.4512L121.281 76.4082H120.131L120.137 76.4565C120.309 77.3213 121.227 77.9927 122.677 77.9927ZM122.629 75.0601C121.71 75.0601 121.136 74.3296 121.136 73.1479V73.1426C121.136 71.9771 121.71 71.2358 122.629 71.2358C123.51 71.2358 124.106 71.9824 124.106 73.1426V73.1479C124.106 74.3135 123.515 75.0601 122.629 75.0601Z" fill="white"/>
<path d="M128.833 76.1128C130.202 76.1128 131.072 75.2964 131.255 74.3994L131.266 74.3403H130.165L130.148 74.3833C130.003 74.8076 129.547 75.1621 128.859 75.1621C127.936 75.1621 127.35 74.5391 127.329 73.4702H131.33V73.0781C131.33 71.3809 130.358 70.2422 128.773 70.2422C127.189 70.2422 126.168 71.4238 126.168 73.1909V73.1963C126.168 74.9795 127.173 76.1128 128.833 76.1128ZM128.779 71.1929C129.536 71.1929 130.084 71.6709 130.181 72.6484H127.345C127.447 71.7031 128.027 71.1929 128.779 71.1929Z" fill="white"/>
<path d="M134.349 76.1128C135.681 76.1128 136.647 75.4038 136.647 74.3726V74.3672C136.647 73.5562 136.207 73.0996 135.052 72.8311L134.134 72.6216C133.527 72.4766 133.296 72.2402 133.296 71.8911V71.8857C133.296 71.4346 133.688 71.1392 134.311 71.1392C134.966 71.1392 135.353 71.4829 135.423 71.9771L135.428 72.0146H136.519L136.513 71.9502C136.454 70.9888 135.648 70.2422 134.311 70.2422C133.011 70.2422 132.13 70.9351 132.13 71.9448V71.9502C132.13 72.772 132.662 73.2876 133.736 73.5347L134.66 73.7441C135.267 73.8892 135.471 74.0986 135.471 74.4639V74.4692C135.471 74.9258 135.052 75.2158 134.354 75.2158C133.64 75.2158 133.253 74.9097 133.146 74.3887L133.135 74.335H131.985L131.991 74.3833C132.109 75.4146 132.936 76.1128 134.349 76.1128Z" fill="white"/>
<path d="M138.21 76.0806C138.603 76.0806 138.914 75.769 138.914 75.377C138.914 74.9795 138.603 74.6733 138.21 74.6733C137.813 74.6733 137.501 74.9795 137.501 75.377C137.501 75.769 137.813 76.0806 138.21 76.0806Z" fill="white"/>
<path d="M143.737 76H144.94V69.2861H147.309V68.2495H141.363V69.2861H143.737V76Z" fill="white"/>
<path d="M148.195 76H149.355V72.729C149.355 71.8481 149.887 71.2358 150.688 71.2358C151.504 71.2358 151.977 71.7944 151.977 72.729V76H153.137V72.5088C153.137 71.1445 152.342 70.2422 151.133 70.2422C150.29 70.2422 149.683 70.6235 149.382 71.2788H149.355V68.2495H148.195V76Z" fill="white"/>
<path d="M156.676 76.1128C158.046 76.1128 158.916 75.2964 159.099 74.3994L159.109 74.3403H158.008L157.992 74.3833C157.847 74.8076 157.391 75.1621 156.703 75.1621C155.779 75.1621 155.194 74.5391 155.172 73.4702H159.174V73.0781C159.174 71.3809 158.202 70.2422 156.617 70.2422C155.033 70.2422 154.012 71.4238 154.012 73.1909V73.1963C154.012 74.9795 155.017 76.1128 156.676 76.1128ZM156.623 71.1929C157.38 71.1929 157.928 71.6709 158.024 72.6484H155.188C155.291 71.7031 155.871 71.1929 156.623 71.1929Z" fill="white"/>
<path d="M162.192 76.1128C163.524 76.1128 164.491 75.4038 164.491 74.3726V74.3672C164.491 73.5562 164.051 73.0996 162.896 72.8311L161.978 72.6216C161.371 72.4766 161.14 72.2402 161.14 71.8911V71.8857C161.14 71.4346 161.532 71.1392 162.155 71.1392C162.81 71.1392 163.197 71.4829 163.267 71.9771L163.272 72.0146H164.362L164.357 71.9502C164.298 70.9888 163.492 70.2422 162.155 70.2422C160.855 70.2422 159.974 70.9351 159.974 71.9448V71.9502C159.974 72.772 160.506 73.2876 161.58 73.5347L162.504 73.7441C163.111 73.8892 163.315 74.0986 163.315 74.4639V74.4692C163.315 74.9258 162.896 75.2158 162.198 75.2158C161.483 75.2158 161.097 74.9097 160.989 74.3887L160.979 74.335H159.829L159.834 74.3833C159.953 75.4146 160.78 76.1128 162.192 76.1128Z" fill="white"/>
<path d="M167.805 76.1128C169.175 76.1128 170.045 75.2964 170.228 74.3994L170.238 74.3403H169.137L169.121 74.3833C168.976 74.8076 168.52 75.1621 167.832 75.1621C166.908 75.1621 166.323 74.5391 166.301 73.4702H170.303V73.0781C170.303 71.3809 169.331 70.2422 167.746 70.2422C166.162 70.2422 165.141 71.4238 165.141 73.1909V73.1963C165.141 74.9795 166.146 76.1128 167.805 76.1128ZM167.751 71.1929C168.509 71.1929 169.057 71.6709 169.153 72.6484H166.317C166.419 71.7031 167 71.1929 167.751 71.1929Z" fill="white"/>
<path d="M175.867 76.1128C177.226 76.1128 178.171 75.2427 178.295 74.1094L178.3 74.0718H177.183L177.178 74.1147C177.038 74.7271 176.582 75.1406 175.867 75.1406C174.97 75.1406 174.374 74.4155 174.374 73.1802V73.1748C174.374 71.9663 174.959 71.2144 175.862 71.2144C176.619 71.2144 177.049 71.6816 177.172 72.2349L177.183 72.2778H178.29L178.284 72.2402C178.188 71.1768 177.307 70.2422 175.851 70.2422C174.24 70.2422 173.187 71.3755 173.187 73.1641V73.1694C173.187 74.9795 174.218 76.1128 175.867 76.1128Z" fill="white"/>
<path d="M180.782 76.1021C181.528 76.1021 182.184 75.7153 182.511 75.1084H182.533V76H183.698V72.106C183.698 70.9727 182.823 70.2422 181.442 70.2422C180.051 70.2422 179.208 70.9888 179.127 71.9609L179.122 72.02H180.218L180.229 71.9717C180.325 71.5205 180.739 71.2036 181.41 71.2036C182.13 71.2036 182.533 71.5796 182.533 72.2026V72.627L180.997 72.7183C179.659 72.7988 178.896 73.4004 178.896 74.3833V74.394C178.896 75.4092 179.654 76.1021 180.782 76.1021ZM180.067 74.3672V74.3564C180.067 73.8784 180.454 73.5723 181.152 73.5293L182.533 73.4434V73.8838C182.533 74.6196 181.915 75.1729 181.099 75.1729C180.476 75.1729 180.067 74.8613 180.067 74.3672Z" fill="white"/>
<path d="M184.826 76H185.986V72.7075C185.986 71.8267 186.513 71.2358 187.329 71.2358C188.135 71.2358 188.532 71.7139 188.532 72.5625V76H189.698V72.3423C189.698 71.0425 188.983 70.2422 187.743 70.2422C186.889 70.2422 186.309 70.6289 186.013 71.2036H185.986V70.3496H184.826V76Z" fill="white"/>
<path d="M49.3618 89.1128C50.7959 89.1128 51.7251 87.9741 51.7251 86.1748V86.1694C51.7251 84.3701 50.7905 83.2422 49.3726 83.2422C48.5723 83.2422 47.9277 83.645 47.5894 84.311H47.5625V81.2495H46.4023V89H47.5625V88.0439H47.5894C47.9224 88.7046 48.5508 89.1128 49.3618 89.1128ZM49.0557 88.1138C48.1748 88.1138 47.5571 87.3511 47.5571 86.1748V86.1694C47.5571 84.9985 48.1802 84.2358 49.0557 84.2358C49.9688 84.2358 50.5381 84.9771 50.5381 86.1694V86.1748C50.5381 87.3779 49.9688 88.1138 49.0557 88.1138Z" fill="white"/>
<path d="M55.0337 89.1128C56.4033 89.1128 57.2734 88.2964 57.4561 87.3994L57.4668 87.3403H56.3657L56.3496 87.3833C56.2046 87.8076 55.748 88.1621 55.0605 88.1621C54.1367 88.1621 53.5513 87.5391 53.5298 86.4702H57.5312V86.0781C57.5312 84.3809 56.5591 83.2422 54.9746 83.2422C53.3901 83.2422 52.3696 84.4238 52.3696 86.1909V86.1963C52.3696 87.9795 53.374 89.1128 55.0337 89.1128ZM54.98 84.1929C55.7373 84.1929 56.2852 84.6709 56.3818 85.6484H53.5459C53.6479 84.7031 54.228 84.1929 54.98 84.1929Z" fill="white"/>
<path d="M63.0957 89.1128C64.4546 89.1128 65.3999 88.2427 65.5234 87.1094L65.5288 87.0718H64.4116L64.4062 87.1147C64.2666 87.7271 63.8101 88.1406 63.0957 88.1406C62.1987 88.1406 61.6025 87.4155 61.6025 86.1802V86.1748C61.6025 84.9663 62.188 84.2144 63.0903 84.2144C63.8477 84.2144 64.2773 84.6816 64.4009 85.2349L64.4116 85.2778H65.5181L65.5127 85.2402C65.416 84.1768 64.5352 83.2422 63.0796 83.2422C61.4683 83.2422 60.4155 84.3755 60.4155 86.1641V86.1694C60.4155 87.9795 61.4468 89.1128 63.0957 89.1128Z" fill="white"/>
<path d="M68.7783 89.1128C70.395 89.1128 71.4585 87.9956 71.4585 86.1748V86.1641C71.4585 84.354 70.3843 83.2422 68.7729 83.2422C67.167 83.2422 66.0981 84.3594 66.0981 86.1641V86.1748C66.0981 87.9902 67.1562 89.1128 68.7783 89.1128ZM68.7837 88.1406C67.876 88.1406 67.2852 87.4263 67.2852 86.1748V86.1641C67.2852 84.9287 67.8813 84.2144 68.7729 84.2144C69.6807 84.2144 70.2715 84.9287 70.2715 86.1641V86.1748C70.2715 87.4209 69.6914 88.1406 68.7837 88.1406Z" fill="white"/>
<path d="M72.3555 89H73.5156V85.7075C73.5156 84.8267 74.042 84.2358 74.8584 84.2358C75.6641 84.2358 76.0615 84.7139 76.0615 85.5625V89H77.2271V85.3423C77.2271 84.0425 76.5127 83.2422 75.272 83.2422C74.418 83.2422 73.8379 83.6289 73.5425 84.2036H73.5156V83.3496H72.3555V89Z" fill="white"/>
<path d="M78.688 89H79.8535V84.2734H80.9814V83.3496H79.832V82.7695C79.832 82.27 80.0791 82.0176 80.6001 82.0176C80.7451 82.0176 80.8901 82.0283 81.0029 82.0444V81.1851C80.8472 81.1582 80.5894 81.1367 80.353 81.1367C79.2036 81.1367 78.688 81.6523 78.688 82.748V83.3496H77.9092V84.2734H78.688V89Z" fill="white"/>
<path d="M82.5229 82.4795C82.9043 82.4795 83.1997 82.1787 83.1997 81.8135C83.1997 81.4429 82.9043 81.1421 82.5229 81.1421C82.147 81.1421 81.8462 81.4429 81.8462 81.8135C81.8462 82.1787 82.147 82.4795 82.5229 82.4795ZM81.9429 89H83.103V83.3496H81.9429V89Z" fill="white"/>
<path d="M86.7769 90.9927C88.3721 90.9927 89.3711 90.1333 89.3711 88.8442V83.3496H88.2056V84.311H88.1787C87.8457 83.6719 87.2227 83.2422 86.4277 83.2422C84.9937 83.2422 84.0483 84.354 84.0483 86.1265V86.1318C84.0483 87.8936 84.9829 89.0054 86.4009 89.0054C87.2119 89.0054 87.8564 88.6133 88.1787 88.001H88.2056V88.7744C88.2056 89.564 87.6953 90.0581 86.7715 90.0581C86.0464 90.0581 85.5576 89.811 85.4019 89.4512L85.3804 89.4082H84.231L84.2363 89.4565C84.4082 90.3213 85.3267 90.9927 86.7769 90.9927ZM86.7285 88.0601C85.8101 88.0601 85.2354 87.3296 85.2354 86.1479V86.1426C85.2354 84.9771 85.8101 84.2358 86.7285 84.2358C87.6094 84.2358 88.2056 84.9824 88.2056 86.1426V86.1479C88.2056 87.3135 87.6147 88.0601 86.7285 88.0601Z" fill="white"/>
<path d="M92.4434 89.1128C93.3027 89.1128 93.8774 88.7207 94.1729 88.1514H94.1997V89H95.3652V83.3496H94.1997V86.6475C94.1997 87.5283 93.6733 88.1138 92.8569 88.1138C92.0513 88.1138 91.6538 87.6411 91.6538 86.7871V83.3496H90.4937V87.0127C90.4937 88.3125 91.2026 89.1128 92.4434 89.1128Z" fill="white"/>
<path d="M96.5146 89H97.6748V85.6323C97.6748 84.7891 98.1367 84.3003 98.8833 84.3003C99.1089 84.3003 99.313 84.3271 99.4043 84.3647V83.2852C99.313 83.269 99.168 83.2422 99.0015 83.2422C98.3569 83.2422 97.8843 83.6558 97.7017 84.3164H97.6748V83.3496H96.5146V89Z" fill="white"/>
<path d="M102.289 89.1128C103.658 89.1128 104.528 88.2964 104.711 87.3994L104.722 87.3403H103.621L103.604 87.3833C103.459 87.8076 103.003 88.1621 102.315 88.1621C101.392 88.1621 100.806 87.5391 100.785 86.4702H104.786V86.0781C104.786 84.3809 103.814 83.2422 102.229 83.2422C100.645 83.2422 99.6245 84.4238 99.6245 86.1909V86.1963C99.6245 87.9795 100.629 89.1128 102.289 89.1128ZM102.235 84.1929C102.992 84.1929 103.54 84.6709 103.637 85.6484H100.801C100.903 84.7031 101.483 84.1929 102.235 84.1929Z" fill="white"/>
<path d="M107.799 89.1128C108.61 89.1128 109.233 88.7046 109.572 88.0439H109.593V89H110.759V81.2495H109.593V84.311H109.572C109.233 83.645 108.589 83.2422 107.789 83.2422C106.371 83.2422 105.436 84.3701 105.436 86.1694V86.1748C105.436 87.9741 106.36 89.1128 107.799 89.1128ZM108.105 88.1138C107.187 88.1138 106.623 87.3779 106.623 86.1748V86.1694C106.623 84.9771 107.192 84.2358 108.105 84.2358C108.976 84.2358 109.599 84.9985 109.599 86.1694V86.1748C109.599 87.3511 108.981 88.1138 108.105 88.1138Z" fill="white"/>
<path d="M114.814 82.4795C115.195 82.4795 115.491 82.1787 115.491 81.8135C115.491 81.4429 115.195 81.1421 114.814 81.1421C114.438 81.1421 114.137 81.4429 114.137 81.8135C114.137 82.1787 114.438 82.4795 114.814 82.4795ZM114.234 89H115.394V83.3496H114.234V89Z" fill="white"/>
<path d="M116.592 89H117.752V85.7075C117.752 84.8267 118.278 84.2358 119.095 84.2358C119.9 84.2358 120.298 84.7139 120.298 85.5625V89H121.463V85.3423C121.463 84.0425 120.749 83.2422 119.508 83.2422C118.654 83.2422 118.074 83.6289 117.779 84.2036H117.752V83.3496H116.592V89Z" fill="white"/>
<path d="M127.603 89.1289C129.439 89.1289 130.557 88.2319 130.557 86.8193V86.814C130.557 85.6162 129.869 84.9663 128.269 84.6279L127.42 84.4507C126.453 84.2412 126.013 83.8867 126.013 83.3066V83.3013C126.013 82.6245 126.625 82.168 127.586 82.1626C128.505 82.1626 129.128 82.5977 129.235 83.3174L129.241 83.3926H130.412L130.406 83.3013C130.326 82.0015 129.219 81.1206 127.603 81.1206C125.964 81.1206 124.799 82.0283 124.793 83.3496V83.355C124.793 84.5044 125.529 85.2026 127.049 85.5249L127.893 85.7021C128.918 85.9277 129.343 86.2661 129.343 86.8892V86.8945C129.343 87.6196 128.688 88.0869 127.651 88.0869C126.614 88.0869 125.9 87.6411 125.792 86.9268L125.782 86.8569H124.611L124.616 86.9375C124.713 88.3018 125.862 89.1289 127.603 89.1289Z" fill="white"/>
<path d="M133.914 89.1128C135.283 89.1128 136.153 88.2964 136.336 87.3994L136.347 87.3403H135.246L135.229 87.3833C135.084 87.8076 134.628 88.1621 133.94 88.1621C133.017 88.1621 132.431 87.5391 132.41 86.4702H136.411V86.0781C136.411 84.3809 135.439 83.2422 133.854 83.2422C132.27 83.2422 131.25 84.4238 131.25 86.1909V86.1963C131.25 87.9795 132.254 89.1128 133.914 89.1128ZM133.86 84.1929C134.617 84.1929 135.165 84.6709 135.262 85.6484H132.426C132.528 84.7031 133.108 84.1929 133.86 84.1929Z" fill="white"/>
<path d="M139.295 89.1128C139.532 89.1128 139.752 89.0859 139.886 89.0645V88.1675C139.8 88.1782 139.698 88.189 139.575 88.189C139.086 88.189 138.828 88.0171 138.828 87.4424V84.2734H139.886V83.3496H138.828V81.8779H137.641V83.3496H136.83V84.2734H137.641V87.5122C137.641 88.6401 138.178 89.1128 139.295 89.1128Z" fill="white"/>
<path d="M142.83 89.1128C143.066 89.1128 143.286 89.0859 143.42 89.0645V88.1675C143.334 88.1782 143.232 88.189 143.109 88.189C142.62 88.189 142.362 88.0171 142.362 87.4424V84.2734H143.42V83.3496H142.362V81.8779H141.175V83.3496H140.364V84.2734H141.175V87.5122C141.175 88.6401 141.712 89.1128 142.83 89.1128Z" fill="white"/>
<path d="M145.01 82.4795C145.392 82.4795 145.687 82.1787 145.687 81.8135C145.687 81.4429 145.392 81.1421 145.01 81.1421C144.634 81.1421 144.333 81.4429 144.333 81.8135C144.333 82.1787 144.634 82.4795 145.01 82.4795ZM144.43 89H145.59V83.3496H144.43V89Z" fill="white"/>
<path d="M146.788 89H147.948V85.7075C147.948 84.8267 148.475 84.2358 149.291 84.2358C150.097 84.2358 150.494 84.7139 150.494 85.5625V89H151.66V85.3423C151.66 84.0425 150.945 83.2422 149.705 83.2422C148.851 83.2422 148.271 83.6289 147.975 84.2036H147.948V83.3496H146.788V89Z" fill="white"/>
<path d="M155.258 90.9927C156.854 90.9927 157.853 90.1333 157.853 88.8442V83.3496H156.687V84.311H156.66C156.327 83.6719 155.704 83.2422 154.909 83.2422C153.475 83.2422 152.53 84.354 152.53 86.1265V86.1318C152.53 87.8936 153.464 89.0054 154.882 89.0054C155.693 89.0054 156.338 88.6133 156.66 88.001H156.687V88.7744C156.687 89.564 156.177 90.0581 155.253 90.0581C154.528 90.0581 154.039 89.811 153.883 89.4512L153.862 89.4082H152.712L152.718 89.4565C152.89 90.3213 153.808 90.9927 155.258 90.9927ZM155.21 88.0601C154.292 88.0601 153.717 87.3296 153.717 86.1479V86.1426C153.717 84.9771 154.292 84.2358 155.21 84.2358C156.091 84.2358 156.687 84.9824 156.687 86.1426V86.1479C156.687 87.3135 156.096 88.0601 155.21 88.0601Z" fill="white"/>
<path d="M161.118 89.1128C162.45 89.1128 163.417 88.4038 163.417 87.3726V87.3672C163.417 86.5562 162.977 86.0996 161.822 85.8311L160.903 85.6216C160.296 85.4766 160.065 85.2402 160.065 84.8911V84.8857C160.065 84.4346 160.458 84.1392 161.081 84.1392C161.736 84.1392 162.123 84.4829 162.192 84.9771L162.198 85.0146H163.288L163.283 84.9502C163.224 83.9888 162.418 83.2422 161.081 83.2422C159.781 83.2422 158.9 83.9351 158.9 84.9448V84.9502C158.9 85.772 159.432 86.2876 160.506 86.5347L161.43 86.7441C162.037 86.8892 162.241 87.0986 162.241 87.4639V87.4692C162.241 87.9258 161.822 88.2158 161.124 88.2158C160.409 88.2158 160.022 87.9097 159.915 87.3887L159.904 87.335H158.755L158.76 87.3833C158.878 88.4146 159.706 89.1128 161.118 89.1128Z" fill="white"/>
<path d="M164.98 89.0806C165.372 89.0806 165.684 88.769 165.684 88.377C165.684 87.9795 165.372 87.6733 164.98 87.6733C164.583 87.6733 164.271 87.9795 164.271 88.377C164.271 88.769 164.583 89.0806 164.98 89.0806Z" fill="white"/>
<path d="M27.1387 137H29.8726C32.1821 137 33.541 135.561 33.541 133.111V133.101C33.541 130.662 32.1714 129.25 29.8726 129.25H27.1387V137ZM28.3418 135.958V130.286H29.7598C31.3926 130.286 32.311 131.291 32.311 133.111V133.122C32.311 134.954 31.4033 135.958 29.7598 135.958H28.3418Z" fill="#47B4F2"/>
<path d="M36.9785 137.113C38.5952 137.113 39.6587 135.996 39.6587 134.175V134.164C39.6587 132.354 38.5845 131.242 36.9731 131.242C35.3672 131.242 34.2983 132.359 34.2983 134.164V134.175C34.2983 135.99 35.3564 137.113 36.9785 137.113ZM36.9839 136.141C36.0762 136.141 35.4854 135.426 35.4854 134.175V134.164C35.4854 132.929 36.0815 132.214 36.9731 132.214C37.8809 132.214 38.4717 132.929 38.4717 134.164V134.175C38.4717 135.421 37.8916 136.141 36.9839 136.141Z" fill="#47B4F2"/>
<path d="M40.5557 137H41.7158V133.708C41.7158 132.827 42.2422 132.236 43.0586 132.236C43.8643 132.236 44.2617 132.714 44.2617 133.562V137H45.4272V133.342C45.4272 132.042 44.7129 131.242 43.4722 131.242C42.6182 131.242 42.0381 131.629 41.7427 132.204H41.7158V131.35H40.5557V137Z" fill="#47B4F2"/>
<path d="M46.8076 132.085H47.6348L47.7583 129.25H46.6841L46.8076 132.085Z" fill="#47B4F2"/>
<path d="M51.2065 137.113C51.4429 137.113 51.6631 137.086 51.7974 137.064V136.167C51.7114 136.178 51.6094 136.189 51.4858 136.189C50.9971 136.189 50.7393 136.017 50.7393 135.442V132.273H51.7974V131.35H50.7393V129.878H49.5522V131.35H48.7412V132.273H49.5522V135.512C49.5522 136.64 50.0894 137.113 51.2065 137.113Z" fill="#47B4F2"/>
<path d="M54.5581 137H55.8203L56.5347 134.905H59.521L60.23 137H61.4922L58.6777 129.25H57.3779L54.5581 137ZM58.0171 130.533H58.0386L59.1934 133.938H56.8569L58.0171 130.533Z" fill="#47B4F2"/>
<path d="M62.2549 137H63.415V129.25H62.2549V137Z" fill="#47B4F2"/>
<path d="M64.6504 137H65.8105V129.25H64.6504V137Z" fill="#47B4F2"/>
<path d="M69.4307 137.113C71.0474 137.113 72.1108 135.996 72.1108 134.175V134.164C72.1108 132.354 71.0366 131.242 69.4253 131.242C67.8193 131.242 66.7505 132.359 66.7505 134.164V134.175C66.7505 135.99 67.8086 137.113 69.4307 137.113ZM69.436 136.141C68.5283 136.141 67.9375 135.426 67.9375 134.175V134.164C67.9375 132.929 68.5337 132.214 69.4253 132.214C70.333 132.214 70.9238 132.929 70.9238 134.164V134.175C70.9238 135.421 70.3438 136.141 69.436 136.141Z" fill="#47B4F2"/>
<path d="M74.0981 137H75.2959L76.4722 132.768H76.499L77.686 137H78.8945L80.4414 131.35H79.292L78.2607 135.797H78.2339L77.0522 131.35H75.9351L74.7588 135.797H74.7373L73.7061 131.35H72.5459L74.0981 137Z" fill="#47B4F2"/>
<path d="M145.207 137H146.91L147.495 135.12H150.234L150.82 137H152.522L149.821 129.25H147.914L145.207 137ZM148.849 130.753H148.881L149.858 133.906H147.871L148.849 130.753Z" fill="#47B4F2"/>
<path d="M153.221 137H154.789V129.25H153.221V137Z" fill="#47B4F2"/>
<path d="M155.885 137H157.453V129.25H155.885V137Z" fill="#47B4F2"/>
<path d="M161.154 137.118C162.894 137.118 164.006 136.001 164.006 134.121V134.11C164.006 132.247 162.873 131.124 161.148 131.124C159.43 131.124 158.302 132.257 158.302 134.11V134.121C158.302 135.996 159.403 137.118 161.154 137.118ZM161.159 135.888C160.386 135.888 159.897 135.249 159.897 134.121V134.11C159.897 132.999 160.391 132.354 161.148 132.354C161.911 132.354 162.411 132.999 162.411 134.11V134.121C162.411 135.244 161.922 135.888 161.159 135.888Z" fill="#47B4F2"/>
<path d="M165.886 137H167.535L168.571 132.929H168.604L169.646 137H171.316L172.841 131.242H171.294L170.419 135.512H170.387L169.361 131.242H167.857L166.836 135.512H166.804L165.934 131.242H164.355L165.886 137Z" fill="#47B4F2"/>
</svg>
