<svg width="15" height="14" viewBox="0 0 15 14" fill="none" xmlns="http://www.w3.org/2000/svg">
<path d="M7.5 0C3.35685 0 0 3.13306 0 7C0 10.8669 3.35685 14 7.5 14C11.6431 14 15 10.8669 15 7C15 3.13306 11.6431 0 7.5 0ZM9.91935 4.74194C10.4546 4.74194 10.8871 5.14556 10.8871 5.64516C10.8871 6.14476 10.4546 6.54839 9.91935 6.54839C9.38407 6.54839 8.95161 6.14476 8.95161 5.64516C8.95161 5.14556 9.38407 4.74194 9.91935 4.74194ZM5.08065 4.74194C5.61593 4.74194 6.04839 5.14556 6.04839 5.64516C6.04839 6.14476 5.61593 6.54839 5.08065 6.54839C4.54536 6.54839 4.1129 6.14476 4.1129 5.64516C4.1129 5.14556 4.54536 4.74194 5.08065 4.74194ZM10.9718 9.54597C10.1099 10.5113 8.84577 11.0645 7.5 11.0645C6.15423 11.0645 4.89012 10.5113 4.02823 9.54597C3.61694 9.08589 4.36089 8.51008 4.77218 8.96734C5.4496 9.72661 6.44153 10.1585 7.5 10.1585C8.55847 10.1585 9.5504 9.72379 10.2278 8.96734C10.6331 8.51008 11.38 9.08589 10.9718 9.54597Z" fill="white"/>
</svg>
