<svg width="15" height="15" viewBox="0 0 15 15" fill="none" xmlns="http://www.w3.org/2000/svg">
<path d="M7.5 0C11.6431 0 15 3.35685 15 7.5C15 11.6431 11.6431 15 7.5 15C3.35685 15 0 11.6431 0 7.5C0 3.35685 3.35685 0 7.5 0ZM3.99194 8.83065H7.5V10.9748C7.5 11.2984 7.89315 11.4617 8.11996 11.2319L11.5766 7.75706C11.7188 7.61492 11.7188 7.3881 11.5766 7.24597L8.11996 3.76815C7.89012 3.53831 7.5 3.70161 7.5 4.0252V6.16935H3.99194C3.79234 6.16935 3.62903 6.33266 3.62903 6.53226V8.46774C3.62903 8.66734 3.79234 8.83065 3.99194 8.83065Z" fill="white"/>
</svg>
