<svg width="20" height="17" viewBox="0 0 20 17" fill="none" xmlns="http://www.w3.org/2000/svg">
<path d="M13.5713 5.20968C12.9865 2.14899 11.6072 0 10.002 0C8.39685 0 7.01754 2.14899 6.43275 5.20968H13.5713ZM6.13027 8.5C6.13027 9.26089 6.17867 9.99093 6.26336 10.6935H13.7366C13.8213 9.99093 13.8697 9.26089 13.8697 8.5C13.8697 7.73911 13.8213 7.00907 13.7366 6.30645H6.26336C6.17867 7.00907 6.13027 7.73911 6.13027 8.5ZM19.2257 5.20968C18.0722 2.88246 15.737 1.08306 12.8534 0.356452C13.8375 1.51492 14.515 3.25948 14.8699 5.20968H19.2257ZM7.1466 0.356452C4.26699 1.08306 1.92781 2.88246 0.778383 5.20968H5.1341C5.48498 3.25948 6.16253 1.51492 7.1466 0.356452ZM19.6572 6.30645H15.0313C15.116 7.02621 15.1643 7.7631 15.1643 8.5C15.1643 9.2369 15.116 9.97379 15.0313 10.6935H19.6532C19.875 9.99093 20 9.26089 20 8.5C20 7.73911 19.875 7.00907 19.6572 6.30645ZM4.83969 8.5C4.83969 7.7631 4.88808 7.02621 4.97278 6.30645H0.346844C0.129058 7.00907 0 7.73911 0 8.5C0 9.26089 0.129058 9.99093 0.346844 10.6935H4.96874C4.88808 9.97379 4.83969 9.2369 4.83969 8.5ZM6.43275 11.7903C7.01754 14.851 8.39685 17 10.002 17C11.6072 17 12.9865 14.851 13.5713 11.7903H6.43275ZM12.8574 16.6435C15.737 15.9169 18.0762 14.1175 19.2297 11.7903H14.874C14.5191 13.7405 13.8415 15.4851 12.8574 16.6435ZM0.778383 11.7903C1.93184 14.1175 4.26699 15.9169 7.15064 16.6435C6.16657 15.4851 5.48901 13.7405 5.1341 11.7903H0.778383Z" fill="white"/>
</svg>
