<svg width="46" height="55" viewBox="0 0 46 55" fill="none" xmlns="http://www.w3.org/2000/svg">
<path d="M45.1919 11.2126L42.5022 9.76713C41.7594 9.36791 40.8365 9.64783 40.4406 10.3924L39.7242 11.7399L36.2892 9.89393C36.2107 7.78836 35.0758 5.77535 33.0897 4.70801L27.7115 1.8177C20.2854 -2.17316 11.0559 0.626249 7.09718 8.0703L16.5986 9.70998L17.119 11.4257C17.5901 12.9786 18.6559 14.2821 20.0831 15.0483L25.9237 18.1871C27.9098 19.2544 30.2051 19.0848 31.9902 17.9808L35.4252 19.8267L34.7087 21.1742C34.3128 21.9188 34.594 22.8458 35.3368 23.245L38.0265 24.6905C38.7694 25.0897 39.6922 24.8098 40.0881 24.0651L45.8216 13.2819C46.2159 12.5388 45.9348 11.6118 45.1919 11.2126ZM18.6496 17.7444C18.2098 17.5081 17.8102 17.2206 17.4206 16.9231L0.791161 45.7661C-0.875498 48.6578 0.180451 52.3655 3.12004 53.946C6.05962 55.5265 9.71366 54.3493 11.1792 51.3487L25.7935 21.4281C25.352 21.2713 24.9109 21.1093 24.4902 20.8832L18.6496 17.7444Z" fill="black"/>
</svg>
