<svg width="17" height="11" viewBox="0 0 17 11" fill="none" xmlns="http://www.w3.org/2000/svg">
<path d="M15.5869 6.47365L16.9821 2.0049C17.0828 1.68225 16.7459 1.375 16.2914 1.375H4.69885L4.42832 0.412285C4.36091 0.172326 4.07085 0 3.73436 0H0.708333C0.317127 0 0 0.23085 0 0.515625V0.859375C0 1.14415 0.317127 1.375 0.708333 1.375H2.77085L4.84415 8.75349C4.34813 8.96113 4.01389 9.35047 4.01389 9.79688C4.01389 10.4613 4.75386 11 5.66667 11C6.57947 11 7.31945 10.4613 7.31945 9.79688C7.31945 9.46013 7.12917 9.15589 6.8229 8.9375H13.0104C12.7042 9.15589 12.5139 9.46013 12.5139 9.79688C12.5139 10.4613 13.2539 11 14.1667 11C15.0795 11 15.8194 10.4613 15.8194 9.79688C15.8194 9.32052 15.4391 8.90888 14.8874 8.71395L15.0503 8.1924C15.151 7.86975 14.8141 7.5625 14.3595 7.5625H6.43748L6.24431 6.875H14.8962C15.2269 6.875 15.5136 6.70841 15.5869 6.47365Z" fill="white"/>
</svg>
